<?xml version="1.0" encoding="UTF-8" standalone="no"?>
<svg
   xmlns:dc="http://purl.org/dc/elements/1.1/"
   xmlns:cc="http://creativecommons.org/ns#"
   xmlns:rdf="http://www.w3.org/1999/02/22-rdf-syntax-ns#"
   xmlns:svg="http://www.w3.org/2000/svg"
   xmlns="http://www.w3.org/2000/svg"
   xmlns:sodipodi="http://sodipodi.sourceforge.net/DTD/sodipodi-0.dtd"
   xmlns:inkscape="http://www.inkscape.org/namespaces/inkscape"
   width="32"
   height="32"
   version="1.1"
   id="svg11"
   sodipodi:docname="bookmarks.svg"
   inkscape:version="1.0 (4035a4fb49, 2020-05-01)">
  <metadata
     id="metadata17">
    <rdf:RDF>
      <cc:Work
         rdf:about="">
        <dc:format>image/svg+xml</dc:format>
        <dc:type
           rdf:resource="http://purl.org/dc/dcmitype/StillImage" />
      </cc:Work>
    </rdf:RDF>
  </metadata>
  <defs
     id="defs15">
    <linearGradient
       id="_lgradient_1"
       x1="0"
       y1="0.5"
       x2="1"
       y2="0.5"
       gradientTransform="matrix(19.206691,0,0,28.000107,6.0550056,2.2700061)"
       gradientUnits="userSpaceOnUse">
      <stop
         offset="0%"
         stop-opacity="1"
         style="stop-color:rgb(242,55,239)"
         id="stop9" />
      <stop
         offset="98.69565217391305%"
         stop-opacity="1"
         style="stop-color:rgb(252,82,82)"
         id="stop11" />
    </linearGradient>
    <linearGradient
       id="_lgradient_1-3"
       x1="0"
       y1="0.5"
       x2="1"
       y2="0.5"
       gradientTransform="matrix(19.206691,0,0,28.000107,6.2711919,2.3832384)"
       gradientUnits="userSpaceOnUse">
      <stop
         offset="0%"
         stop-opacity="1"
         style="stop-color:rgb(242,55,239)"
         id="stop9-6" />
      <stop
         offset="98.69565217391305%"
         stop-opacity="1"
         style="stop-color:rgb(252,82,82)"
         id="stop11-7" />
    </linearGradient>
  </defs>
  <sodipodi:namedview
     pagecolor="#ffffff"
     bordercolor="#666666"
     inkscape:document-rotation="0"
     borderopacity="1"
     objecttolerance="10"
     gridtolerance="10"
     guidetolerance="10"
     inkscape:pageopacity="0"
     inkscape:pageshadow="2"
     inkscape:window-width="1920"
     inkscape:window-height="1022"
     id="namedview13"
     showgrid="false"
     inkscape:zoom="5.6568543"
     inkscape:cx="10.815357"
     inkscape:cy="19.780837"
     inkscape:window-x="0"
     inkscape:window-y="0"
     inkscape:window-maximized="1"
     inkscape:current-layer="bookmarks-5"
     inkscape:lockguides="true" />
  <g
     id="bookmarks">
    <g
       transform="translate(0.02534369,0.2700052)"
       style="clip-rule:evenodd;fill-rule:evenodd;stroke-linejoin:round;stroke-miterlimit:1.41421"
       id="bookmarks-5">
      <rect
         y="0"
         x="0"
         height="32"
         width="32"
         id="rect820"
         style="fill:#2020ff;fill-opacity:0" />
      <path
         d="M 8.2777481,3.0811671 C 6.4383774,3.2828033 4.8240735,4.0902565 3.5153869,5.4740694 2.0795854,6.9904056 1.3589811,8.8123528 1.36469,10.88792 c 0,1.666292 0.5421078,3.274867 1.533765,4.583871 0.236496,0.311301 2.7270591,2.842441 6.92478,7.034149 l 6.549752,6.544055 0.357602,-0.374722 c 0.195922,-0.20765 0.749449,-0.78402 1.239566,-1.285853 l 0.88228,-0.905116 0.328751,0.219048 c 0.790006,0.542115 1.868208,0.968529 2.836731,1.141626 0.812869,0.138537 2.138988,0.08655 2.894451,-0.115406 1.285841,-0.340152 2.265779,-0.916815 3.222885,-1.873919 1.043648,-1.049354 1.620311,-2.116135 1.931639,-3.591904 0.138527,-0.651496 0.138527,-2.029598 0,-2.669664 -0.21908,-0.997369 -0.593804,-1.891068 -1.141618,-2.709938 -0.167079,-0.253623 -0.322733,-0.490114 -0.351581,-0.530387 -0.02312,-0.04027 0.11539,-0.259332 0.38043,-0.576663 0.933963,-1.107065 1.46464,-2.167821 1.747126,-3.476811 0.149942,-0.686048 0.149942,-2.3063652 0.0061,-2.9866906 C 30.263204,7.2782837 29.063894,5.5254562 27.316774,4.3667171 25.950389,3.4558924 24.629975,3.052017 23.027104,3.0580304 c -1.251292,0.00573 -2.162116,0.2190667 -3.292306,0.7668802 -0.8303,0.4035719 -1.412656,0.8534251 -2.60025,2.0353024 L 16.085107,6.9038603 14.995482,5.8370754 C 13.582822,4.4475511 12.706561,3.8537592 11.409288,3.4213376 10.520695,3.1214335 9.2177229,2.9832053 8.2777481,3.0811671 Z M 10.19766,3.9691523 c 1.055064,0.1730882 2.087292,0.6112223 2.957848,1.2570022 0.507537,0.3747264 0.674628,0.5303855 1.989328,1.908493 l 0.933957,0.9802361 1.372395,-1.3606738 c 1.464639,-1.4586384 1.937332,-1.827657 2.831033,-2.2141009 1.954472,-0.8474172 4.358788,-0.7380373 6.175031,0.2767625 0.882273,0.4901171 1.989326,1.5569027 2.531134,2.4331691 1.510625,2.4331636 1.33754,5.5466725 -0.421008,7.8470185 -0.173085,0.219067 -0.374735,0.461274 -0.44986,0.530388 l -0.132513,0.126802 -0.374733,-0.294179 c -0.882273,-0.68605 -1.879638,-1.257005 -2.214095,-1.257005 -0.05199,0 -0.15566,-0.02887 -0.22478,-0.06911 -0.317024,-0.16708 -2.023879,-0.265344 -2.865589,-0.161371 -2.980998,0.374731 -5.465842,2.698511 -6.019363,5.633229 -0.132525,0.714889 -0.173091,1.666279 -0.0923,2.231221 0.04023,0.27105 0.0923,0.51326 0.121109,0.53039 0.02887,0.01745 0.05198,0.06903 0.05198,0.115383 0,0.04624 0.05199,0.195942 0.109383,0.32876 0.06339,0.132524 0.167066,0.44955 0.242201,0.70348 0.07482,0.271052 0.207648,0.570643 0.32875,0.738025 0.109683,0.149958 0.253618,0.39786 0.328751,0.547816 0.07485,0.149956 0.299899,0.46698 0.507246,0.70348 l 0.374718,0.432425 -0.293885,0.317031 c -0.564942,0.605506 -1.591458,1.671997 -1.614297,1.671997 -0.01141,0 -2.825326,-2.825339 -6.255866,-6.278999 C 6.2424464,17.766428 3.7344529,15.188992 3.5268047,14.912254 2.097016,12.98663 1.791403,10.461215 2.7022269,8.1719806 3.8786946,5.2087251 7.0093278,3.4558924 10.19766,3.9691523 Z M 24.623582,14.860563 c 1.124186,0.282479 2.081281,0.818871 2.928999,1.631735 0.807153,0.766883 1.285846,1.568322 1.591459,2.675372 0.184512,0.674626 0.253625,1.931625 0.138527,2.629097 -0.35759,2.254357 -1.966181,4.16857 -4.11688,4.895176 -1.228152,0.421012 -2.70994,0.415301 -3.94379,0 -1.17617,-0.403572 -2.462016,-1.360666 -3.119217,-2.335196 -1.262714,-1.856518 -1.429794,-4.2434 -0.432425,-6.26157 0.605519,-1.239585 1.76425,-2.346637 3.015548,-2.888745 1.257,-0.542106 2.66936,-0.668908 3.937779,-0.345869 z"
         id="22-22-bookmarks"
         style="fill:#007353;fill-opacity:1;stroke-width:0.003005"
         inkscape:connector-curvature="0" />
      <path
         d="M 23.793206,20.238498 22.09079,21.94092 21.268517,21.155227 c -0.450446,-0.429423 -0.843289,-0.780503 -0.869497,-0.780503 -0.02621,0 -0.151788,0.104831 -0.277641,0.235599 l -0.230412,0.2356 1.068514,1.073701 c 0.591864,0.591863 1.099915,1.068514 1.131309,1.06333 0.0838,-0.02104 3.897054,-3.933638 3.897054,-3.9967 0,-0.06798 -0.377014,-0.445259 -0.445261,-0.445259 -0.03113,5.47e-4 -0.816814,0.765212 -1.749377,1.697503 z"
         id="path6"
         style="fill:#d40055;fill-opacity:1;stroke-width:0.00272997"
         inkscape:connector-curvature="0" />
    </g>
  </g>
</svg>
