<?xml version="1.0" encoding="UTF-8" standalone="no"?>
<svg
   xmlns:dc="http://purl.org/dc/elements/1.1/"
   xmlns:cc="http://creativecommons.org/ns#"
   xmlns:rdf="http://www.w3.org/1999/02/22-rdf-syntax-ns#"
   xmlns:svg="http://www.w3.org/2000/svg"
   xmlns="http://www.w3.org/2000/svg"
   xmlns:sodipodi="http://sodipodi.sourceforge.net/DTD/sodipodi-0.dtd"
   xmlns:inkscape="http://www.inkscape.org/namespaces/inkscape"
   inkscape:version="1.0 (4035a4fb49, 2020-05-01)"
   sodipodi:docname="computer.svg"
   version="1.0"
   height="22"
   width="22"
   id="svg2">
  <sodipodi:namedview
     inkscape:document-rotation="0"
     inkscape:current-layer="svg2"
     inkscape:window-maximized="1"
     inkscape:window-y="0"
     inkscape:window-x="0"
     inkscape:cy="3.5423731"
     inkscape:cx="31.375116"
     inkscape:zoom="10.727273"
     showgrid="false"
     id="namedview30"
     inkscape:window-height="1022"
     inkscape:window-width="1920"
     inkscape:pageshadow="2"
     inkscape:pageopacity="0"
     guidetolerance="10"
     gridtolerance="10"
     objecttolerance="10"
     borderopacity="1"
     bordercolor="#666666"
     pagecolor="#ffffff" />
  <metadata
     id="metadata7">
    <rdf:RDF>
      <cc:Work
         rdf:about="">
        <dc:format>image/svg+xml</dc:format>
        <dc:type
           rdf:resource="http://purl.org/dc/dcmitype/StillImage" />
        <dc:title />
      </cc:Work>
    </rdf:RDF>
  </metadata>
  <defs
     id="defs5">
    <style
       type="text/css"
       id="current-color-scheme">
      .ColorScheme-Text {
        color:#31363b;
      }
      .ColorScheme-Background{
        color:#E9E8E8;
      }
      .ColorScheme-ViewText {
        color:#000000;
      }
      .ColorScheme-ViewBackground{
        color:#ffffff;
      }
      .ColorScheme-ViewHover {
        color:#000000;
      }
      .ColorScheme-ViewFocus{
        color:#5a5a5a;
      }
      .ColorScheme-ButtonText {
        color:#000000;
      }
      .ColorScheme-ButtonBackground{
        color:#E9E8E8;
      }
      .ColorScheme-ButtonHover {
        color:#1489ff;
      }
      .ColorScheme-ButtonFocus{
        color:#2B74C7;
      }
</style>
  </defs>
  <g
     transform="matrix(0.75000099,0,0,0.75000099,-289.42897,-387.59902)"
     id="22-22-computer">
    <rect
       y="516.79803"
       x="385.90479"
       height="29.333271"
       width="29.333307"
       id="rect3074"
       style="opacity:0.01000001;fill:#00000f;fill-opacity:0.00392157;stroke:none" />
    <path
       class="ColorScheme-Text"
       d="m 393.90479,542.13129 13.33334,0 0,1.33335 -13.33334,0 z m 4,-2.66666 5.33332,0 0,2.66664 -5.33332,0 z m -10.66667,-18.66662 0,18.6666 26.66663,0 0,-18.6666 z m 1.33333,1.33333 23.99997,0 0,13.33328 -23.99997,0 z"
       style="fill:#008662;fill-opacity:1;stroke:none"
       id="rect7235" />
    <rect
       class="ColorScheme-Text"
       y="522.13135"
       x="388.57144"
       height="13.333305"
       width="23.999973"
       id="rect7240"
       style="opacity:0.6;fill:#55aaff;fill-opacity:1;stroke:none" />
  </g>
  <g
     id="22-22-computer-laptop"
     transform="matrix(0.75,0,0,0.75,-148,-775.27164)">
    <rect
       y="1033.6956"
       x="245.33333"
       height="29.333296"
       width="29.333338"
       id="rect7292"
       style="opacity:0.01000001;fill:#31363b;fill-opacity:0.00392157;stroke:none" />
    <path
       style="fill:#008662;fill-opacity:1;stroke:none"
       d="m 249.33333,1040.3622 0,14.6667 -2.66666,0 c 0,2 2,2.6667 2,2.6667 l 22.66666,0 c 0,0 2,-0.6667 2,-2.6667 l -2.66666,0 0,-14.6667 z m 1.33333,1.3333 18.66667,0 0,12.0001 -18.66667,0 z"
       id="rect7296"
       class="ColorScheme-Text" />
    <rect
       style="opacity:0.6;fill:#55aaff;fill-opacity:1;stroke:none"
       id="rect7300"
       width="18.666662"
       height="12.000219"
       x="250.66667"
       y="1041.6956"
       class="ColorScheme-Text" />
  </g>
  <g
     id="computer"
     transform="matrix(1.09091,0,0,1.09091,-420.9874,-597.79142)">
    <rect
       style="opacity:0.01000001;fill:#00000f;fill-opacity:0.00392157;stroke:none"
       id="rect3018"
       width="29.333307"
       height="29.333271"
       x="385.90479"
       y="516.79803" />
    <path
       id="path3020"
       style="fill:#008662;fill-opacity:1;stroke:none"
       d="m 394.15479,542.47502 12.83332,0 0,0.91666 -12.83332,0 z m 3.75,-2.74998 5.33332,0 0,2.74996 -5.33332,0 z m -10.16666,-19.25001 0,19.24999 25.66664,0 0,-19.24999 z m 0.91666,0.91667 23.83332,10e-6 0,14.66664 -23.83332,0 z"
       class="ColorScheme-Text" />
    <rect
       style="opacity:0.6;fill:#55aaff;fill-opacity:1;stroke:none"
       id="rect3022"
       width="23.833321"
       height="14.666632"
       x="388.65479"
       y="521.39172"
       class="ColorScheme-Text" />
  </g>
  <g
     transform="matrix(1.0909105,0,0,1.0909105,-231.6367,-1161.6693)"
     id="computer-laptop">
    <rect
       style="opacity:0.01000001;fill:#31363b;fill-opacity:0.00392157;stroke:none"
       id="rect3026"
       width="29.333338"
       height="29.333296"
       x="245.33333"
       y="1033.6956" />
    <path
       class="ColorScheme-Text"
       id="path3028"
       d="m 249.91665,1041.0288 0,13.75 -2.66666,0 c 0,2 2.41668,2.75 2.41668,2.75 l 20.66666,0 c 0,0 2.41662,-0.75 2.41662,-2.75 l -2.66666,0 0,-13.75 z m 0.91667,0.9166 18.33331,0 0,11.9168 -18.33331,0 z"
       style="fill:#008662;fill-opacity:1;stroke:none" />
    <rect
       class="ColorScheme-Text"
       y="1041.9456"
       x="250.83331"
       height="11.916634"
       width="18.333315"
       id="rect3030"
       style="opacity:0.6;fill:#55aaff;fill-opacity:1;stroke:none" />
  </g>
  <g
     transform="matrix(0.54506989,0,0,0.54506989,-210.34508,-255.67973)"
     id="16-16-computer">
    <rect
       y="516.79803"
       x="385.90479"
       height="29.333271"
       width="29.333307"
       id="rect3034"
       style="opacity:0.01000001;fill:#00000f;fill-opacity:0.00392157;stroke:none" />
    <path
       class="ColorScheme-Text"
       d="m 393.2433,540.64039 14.67701,0 0,1.84243 -14.67701,0 z m 4.66149,-1.82681 5.33332,0 0,1.82679 -5.33332,0 z m -10.16666,-18.33855 0,18.33853 25.66664,0 0,-18.33853 z m 1.83591,1.82689 22.01553,10e-6 0,12.84238 -22.01553,0 z"
       style="fill:#008662;fill-opacity:1;stroke:none"
       id="path3036" />
    <rect
       class="ColorScheme-Text"
       y="522.30194"
       x="389.57404"
       height="14.677011"
       width="22.015543"
       id="rect3038"
       style="opacity:0.6;fill:#55aaff;fill-opacity:1;stroke:none" />
  </g>
  <g
     id="16-16-computer-laptop"
     transform="matrix(0.5454565,0,0,0.5454565,-97.818659,-537.836)">
    <rect
       y="1033.6956"
       x="245.33333"
       height="29.333296"
       width="29.333338"
       id="rect3042"
       style="opacity:0.01000001;fill:#31363b;fill-opacity:0.00392157;stroke:none" />
    <path
       style="fill:#008662;fill-opacity:1;stroke:none"
       d="m 250.98282,1041.0288 0,12.8334 -3.73283,0 c 0,2 2.41668,3.6666 2.41668,3.6666 l 20.66666,0 c 0,0 2.41662,-1.6666 2.41662,-3.6666 l -3.43386,0 0,-12.8334 z m 1.83333,1.8334 14.66661,0 0,9.1666 -14.66661,0 z"
       id="path3044"
       class="ColorScheme-Text" />
    <rect
       style="opacity:0.6;fill:#55aaff;fill-opacity:1;stroke:none"
       id="rect3046"
       width="14.666613"
       height="9.1666412"
       x="252.81615"
       y="1042.8622"
       class="ColorScheme-Text" />
  </g>
</svg>
