<?xml version="1.0" encoding="UTF-8" standalone="no"?>
<svg
   xmlns:dc="http://purl.org/dc/elements/1.1/"
   xmlns:cc="http://creativecommons.org/ns#"
   xmlns:rdf="http://www.w3.org/1999/02/22-rdf-syntax-ns#"
   xmlns:svg="http://www.w3.org/2000/svg"
   xmlns="http://www.w3.org/2000/svg"
   xmlns:sodipodi="http://sodipodi.sourceforge.net/DTD/sodipodi-0.dtd"
   xmlns:inkscape="http://www.inkscape.org/namespaces/inkscape"
   inkscape:version="1.0 (4035a4fb49, 2020-05-01)"
   sodipodi:docname="document.svg"
   height="100%"
   width="100%"
   version="1.1"
   id="svg"
   viewBox="0 0 22 22">
  <sodipodi:namedview
     inkscape:document-rotation="0"
     inkscape:current-layer="svg"
     inkscape:window-maximized="1"
     inkscape:window-y="0"
     inkscape:window-x="0"
     inkscape:cy="-6.3647672"
     inkscape:cx="46.201463"
     inkscape:zoom="3.7926636"
     showgrid="false"
     id="namedview18"
     inkscape:window-height="1022"
     inkscape:window-width="1920"
     inkscape:pageshadow="2"
     inkscape:pageopacity="0"
     guidetolerance="10"
     gridtolerance="10"
     objecttolerance="10"
     borderopacity="1"
     bordercolor="#666666"
     pagecolor="#ffffff" />
  <defs
     id="defs81">
    <style
       type="text/css"
       id="current-color-scheme">
      .ColorScheme-Text {
        color:#7B7C7E;
      }
      .ColorScheme-Background{
        color:#EFF0F1;
      }
      .ColorScheme-Highlight{
        color:#3DAEE6;
      }
      .ColorScheme-ViewText {
        color:#7B7C7E;
      }
      .ColorScheme-ViewBackground{
        color:#FCFCFC;
      }
      .ColorScheme-ViewHover {
        color:#3DAEE6;
      }
      .ColorScheme-ViewFocus{
        color:#1E92FF;
      }
      .ColorScheme-ButtonText {
        color:#7B7C7E;
      }
      .ColorScheme-ButtonBackground{
        color:#EFF0F1;
      }
      .ColorScheme-ButtonHover {
        color:#3DAEE6;
      }
      .ColorScheme-ButtonFocus{
        color:#1E92FF;
      }
</style>
  </defs>
  <metadata
     id="metadata34">
    <rdf:RDF>
      <cc:Work
         rdf:about="">
        <dc:format>image/svg+xml</dc:format>
        <dc:type
           rdf:resource="http://purl.org/dc/dcmitype/StillImage" />
        <dc:title />
      </cc:Work>
    </rdf:RDF>
  </metadata>
  <g
     transform="translate(58,-22)"
     id="22-22-document-open-recent">
    <rect
       style="opacity:0;fill:#4d4d4d;fill-opacity:1;stroke:none"
       id="rect3024-9"
       width="22"
       height="22"
       x="-60"
       y="-18" />
    <path
       style="fill:#0b0c0d;fill-opacity:1"
       d="m -56,-15 0,16 1,0 5,0 0,-1 -5,0 0,-14 12,0 0,7 1,0 0,-8 -1,0 -12,0 -1,0 z m 10,8 c -2.215995,0 -4,1.784005 -4,4 0,2.215995 1.784005,4 4,4 2.215995,0 4,-1.784005 4,-4 0,-2.215995 -1.784005,-4 -4,-4 z m 0,1 c 1.661995,0 3,1.338005 3,3 0,1.661995 -1.338005,3 -3,3 -1.661995,0 -3,-1.338005 -3,-3 0,-1.661995 1.338005,-3 3,-3 z m -1,1 0,2 0,1 1,0 1,0 0,-1 -1,0 0,-2 -1,0 z"
       id="rect4139"
       class="ColorScheme-Text" />
  </g>
  <g
     id="document-open-recent"
     transform="translate(20,-8)">
    <rect
       y="-45"
       x="23"
       height="32"
       width="32"
       id="rect3005"
       style="opacity:0;fill:#4d4d4d;fill-opacity:1;stroke:none" />
    <path
       class="ColorScheme-Text"
       id="path3009"
       d="m 29,-40 0,23 1.428572,0 6.571428,0 0,-2 -6,0 0,-19 16,0 0,9 2,0 0,-11 -1.428571,0 -17.142857,0 z m 14.285714,11.5 c -3.165707,0 -5.714285,2.564508 -5.714285,5.75 0,3.185493 2.548578,5.75 5.714285,5.75 C 46.451422,-17 49,-19.564507 49,-22.75 c 0,-3.185492 -2.548578,-5.75 -5.714286,-5.75 z m 0,1.625 c 2.374279,0 4.098215,1.735883 4.098215,4.125 0,2.389118 -1.723936,4.125 -4.098215,4.125 -2.374278,0 -4.098214,-1.735882 -4.098214,-4.125 0,-2.389117 1.723936,-4.125 4.098214,-4.125 z M 43,-26.312499 43,-23.4375 43,-22 44.428571,-22 46,-22 l 0,-1 -2,0 0,-3.312499 z"
       style="fill:#0b0c0d;fill-opacity:1" />
  </g>
  <g
     transform="translate(-1,-1)"
     id="document-decrypt">
    <rect
       style="opacity:0.01000001;fill:#00000f;fill-opacity:0.00392157;stroke:none"
       id="rect3814"
       width="22"
       height="22"
       x="1"
       y="1" />
    <path
       class="ColorScheme-Text"
       id="rect4136"
       d="M 12,4 C 9.784,4 8,5.784 8,8 L 8,9 9,9 9,8.5 C 9,6.561 10.338,5 12,5 c 1.662,0 3,1.561 3,3.5 l 0,3.5 -5,0 -1,0 -1,0 -1,0 -1,0 0,1 0,7 1,0 10,0 1,0 0,-8 -1,0 -1,0 0,-4 C 16,5.784 14.216,4 12,4 z m -5,9 10,0 0,6 -10,0 0,-6 z"
       style="fill:#0b0c0d;fill-opacity:1;stroke:none" />
  </g>
  <g
     transform="translate(-1,-1)"
     id="document-encrypt">
    <rect
       y="1"
       x="36"
       height="22"
       width="22"
       id="rect3814-8"
       style="opacity:0.01000001;fill:#00000f;fill-opacity:0.00392157;stroke:none" />
    <path
       class="ColorScheme-Text"
       id="rect4136-4"
       d="m 47,4 c -2.216,0 -4,1.784 -4,4 l 0,4 -2,0 0,1 0,7 1,0 10,0 1,0 0,-8 -1,0 -1,0 0,-4 C 51,5.784 49.216,4 47,4 z m 0,1 c 1.662,0 3,1.561 3,3.5 l 0,3.5 -6,0 0,-3.5 C 44,6.561 45.338,5 47,5 z m -5,8 10,0 0,6 -10,0 0,-6 z"
       style="fill:#0b0c0d;fill-opacity:1;stroke:none" />
  </g>
</svg>
