<?xml version="1.0" encoding="UTF-8" standalone="no"?>
<svg
   xmlns:dc="http://purl.org/dc/elements/1.1/"
   xmlns:cc="http://creativecommons.org/ns#"
   xmlns:rdf="http://www.w3.org/1999/02/22-rdf-syntax-ns#"
   xmlns:svg="http://www.w3.org/2000/svg"
   xmlns="http://www.w3.org/2000/svg"
   xmlns:sodipodi="http://sodipodi.sourceforge.net/DTD/sodipodi-0.dtd"
   xmlns:inkscape="http://www.inkscape.org/namespaces/inkscape"
   inkscape:version="1.0 (4035a4fb49, 2020-05-01)"
   sodipodi:docname="drive.svg"
   id="svg2"
   height="22"
   width="22"
   version="1.1">
  <sodipodi:namedview
     inkscape:document-rotation="0"
     inkscape:current-layer="svg2"
     inkscape:window-maximized="1"
     inkscape:window-y="0"
     inkscape:window-x="0"
     inkscape:cy="-5.253525"
     inkscape:cx="-40.279371"
     inkscape:zoom="5.3636364"
     showgrid="false"
     id="namedview13"
     inkscape:window-height="1022"
     inkscape:window-width="1920"
     inkscape:pageshadow="2"
     inkscape:pageopacity="0"
     guidetolerance="10"
     gridtolerance="10"
     objecttolerance="10"
     borderopacity="1"
     bordercolor="#666666"
     pagecolor="#ffffff" />
  <defs
     id="defs4">
    <style
       id="current-color-scheme"
       type="text/css">
      .ColorScheme-Text {
        color:#31363b;
      }
      .ColorScheme-Background{
        color:#E9E8E8;
      }
      .ColorScheme-ViewText {
        color:#000000;
      }
      .ColorScheme-ViewBackground{
        color:#ffffff;
      }
      .ColorScheme-ViewHover {
        color:#000000;
      }
      .ColorScheme-ViewFocus{
        color:#5a5a5a;
      }
      .ColorScheme-ButtonText {
        color:#000000;
      }
      .ColorScheme-ButtonBackground{
        color:#E9E8E8;
      }
      .ColorScheme-ButtonHover {
        color:#1489ff;
      }
      .ColorScheme-ButtonFocus{
        color:#2B74C7;
      }
</style>
  </defs>
  <metadata
     id="metadata7">
    <rdf:RDF>
      <cc:Work
         rdf:about="">
        <dc:format>image/svg+xml</dc:format>
        <dc:type
           rdf:resource="http://purl.org/dc/dcmitype/StillImage" />
        <dc:title />
      </cc:Work>
    </rdf:RDF>
  </metadata>
  <g
     transform="translate(9,-3)"
     id="16-16-drive-harddisk">
    <rect
       style="opacity:0;fill:#ffffff;fill-opacity:1;stroke:none"
       id="rect3835"
       width="16"
       height="16"
       x="-29"
       y="9"
       ry="0" />
    <path
       class="ColorScheme-Text"
       id="rect2994"
       transform="translate(-9,3)"
       d="M -15.40625,7 C -16.285339,7 -17,7.714661 -17,8.59375 l 0,10.8125 C -17,20.285339 -16.285339,21 -15.40625,21 l 7.8125,0 C -6.714661,21 -6,20.285339 -6,19.40625 L -6,8.59375 C -6,7.714661 -6.714661,7 -7.59375,7 l -7.8125,0 z m 0,1.0625 7.8125,0 c 0.302117,0 0.53125,0.229133 0.53125,0.53125 l 0,10.8125 c 0,0.302117 -0.229133,0.53125 -0.53125,0.53125 l -7.8125,0 c -0.302117,0 -0.53125,-0.229133 -0.53125,-0.53125 l 0,-10.8125 c 0,-0.302117 0.229133,-0.53125 0.53125,-0.53125 z M -11.5,9.28125 c -1.877761,0 -3.53125,1.681691 -3.53125,3.5625 0,1.880809 1.653489,3.5 3.53125,3.5 0.02116,0 0.0414,4.14e-4 0.0625,0 0.292037,0.454014 0.583545,0.8902 0.875,1.34375 0.0016,0.0066 -0.0016,0.02468 0,0.03125 0.04835,0.19037 0.143914,0.372318 0.28125,0.53125 0.47167,0.545865 1.304673,0.609407 1.84375,0.125 0.539076,-0.484406 0.596961,-1.360091 0.125,-1.90625 -0.152221,-0.176154 -0.36192,-0.272591 -0.5625,-0.34375 -0.2064726,-0.153224 -0.3721502,-0.31072 -0.5625,-0.46875 0.8695755,-0.652393 1.46875,-1.690316 1.46875,-2.8125 0,-1.880809 -1.653488,-3.5625 -3.53125,-3.5625 z m 0,0.78125 c 1.435009,0 2.78125,1.363939 2.78125,2.78125 0,0.922295 -0.5494883,1.798652 -1.34375,2.3125 -0.302969,-0.280932 -0.601714,-0.585916 -0.90625,-0.90625 -0.137219,-0.158794 -0.335446,-0.240684 -0.53125,-0.25 -0.195804,-0.0093 -0.370721,0.04325 -0.53125,0.1875 -0.32106,0.288465 -0.368189,0.807412 -0.09375,1.125 0.06671,0.08504 0.124467,0.164466 0.1875,0.25 -1.262727,-0.238412 -2.34375,-1.447446 -2.34375,-2.71875 0,-1.417311 1.346241,-2.78125 2.78125,-2.78125 z m -0.03125,1.71875 c -0.552963,0 -1.000488,0.42493 -1,1 4.87e-4,0.574375 0.447705,1 1,1 0.552294,0 0.999513,-0.425625 1,-1 4.88e-4,-0.57507 -0.447038,-1 -1,-1 z m -2.6875,5.34375 c -0.410262,0 -0.812807,0.396615 -0.8125,0.8125 3.06e-4,0.415485 0.402631,0.78125 0.8125,0.78125 0.409869,0 0.749694,-0.365765 0.75,-0.78125 3.07e-4,-0.415885 -0.339739,-0.8125 -0.75,-0.8125 z"
       style="fill:#0b0c0d;fill-opacity:1" />
  </g>
  <rect
     style="opacity:0;fill:#ffffff;fill-opacity:1;stroke:none"
     id="rect3018"
     width="16"
     height="16"
     x="-20.426331"
     y="-19.384777"
     ry="0" />
  <g
     transform="translate(0,-10)"
     id="drive-harddisk">
    <rect
       style="opacity:0;fill:#ffffff;fill-opacity:1;stroke:none"
       id="rect3004"
       width="22"
       height="22"
       x="0"
       y="10"
       ry="1.375" />
    <path
       style="fill:#0b0c0d;fill-opacity:1"
       d="M 5.59375,13 C 4.714661,13 4,13.714661 4,14.59375 l 0,12.8125 C 4,28.285339 4.714661,29 5.59375,29 l 9.8125,0 C 16.285339,29 17,28.285339 17,27.40625 l 0,-12.8125 C 17,13.714661 16.285339,13 15.40625,13 l -9.8125,0 z m 0,1.0625 9.8125,0 c 0.302117,0 0.53125,0.229133 0.53125,0.53125 l 0,12.8125 c 0,0.302117 -0.229133,0.53125 -0.53125,0.53125 l -9.8125,0 c -0.302117,0 -0.53125,-0.229133 -0.53125,-0.53125 l 0,-12.8125 c 0,-0.302117 0.229133,-0.53125 0.53125,-0.53125 z M 10.5,15 C 8.104712,15 6,17.100824 6,19.5 c 0,2.399175 2.104712,4.5 4.5,4.5 0.04086,0 0.08432,0.0012 0.125,0 0.366066,0.570488 0.727593,1.148951 1.09375,1.71875 0.002,0.0084 -0.0021,0.02287 0,0.03125 0.06168,0.242838 0.168563,0.484765 0.34375,0.6875 0.601665,0.69631 1.656099,0.774163 2.34375,0.15625 0.68765,-0.617913 0.758287,-1.740815 0.15625,-2.4375 -0.194174,-0.224704 -0.462889,-0.34673 -0.71875,-0.4375 C 13.586832,23.52809 13.362246,23.321437 13.125,23.125 14.252152,22.294331 15,20.945385 15,19.5 15,17.100824 12.895288,15 10.5,15 z m 0,0.96875 c 1.83051,0 3.5625,1.723315 3.5625,3.53125 0,1.161842 -0.725266,2.278253 -1.71875,2.9375 C 11.953119,22.075866 11.579955,21.725314 11.1875,21.3125 11.012463,21.10994 10.749769,21.011883 10.5,21 c -0.249769,-0.01189 -0.482728,0.06598 -0.6875,0.25 -0.409548,0.367969 -0.475072,1.001132 -0.125,1.40625 0.083666,0.10665 0.1708751,0.205236 0.25,0.3125 -1.6006286,-0.315057 -3,-1.855168 -3,-3.46875 0,-1.807935 1.731991,-3.53125 3.5625,-3.53125 z m 0,2.53125 c -0.552963,0 -1.000488,0.42493 -1,1 4.87e-4,0.574375 0.447705,1 1,1 0.552294,0 0.999513,-0.425625 1,-1 4.88e-4,-0.57507 -0.447038,-1 -1,-1 z M 7,25 c -0.523333,0 -1.000391,0.469494 -1,1 3.9e-4,0.529997 0.477168,1 1,1 0.522833,0 0.99961,-0.470003 1,-1 3.91e-4,-0.530506 -0.476667,-1 -1,-1 z"
       id="path3020"
       class="ColorScheme-Text" />
  </g>
</svg>
