<?xml version="1.0" encoding="UTF-8" standalone="no"?>
<svg
   xmlns:dc="http://purl.org/dc/elements/1.1/"
   xmlns:cc="http://creativecommons.org/ns#"
   xmlns:rdf="http://www.w3.org/1999/02/22-rdf-syntax-ns#"
   xmlns:svg="http://www.w3.org/2000/svg"
   xmlns="http://www.w3.org/2000/svg"
   xmlns:sodipodi="http://sodipodi.sourceforge.net/DTD/sodipodi-0.dtd"
   xmlns:inkscape="http://www.inkscape.org/namespaces/inkscape"
   inkscape:version="1.0 (4035a4fb49, 2020-05-01)"
   sodipodi:docname="kdeconnect.svg"
   height="100%"
   width="100%"
   version="1.1"
   id="svg"
   viewBox="0 0 22 22">
  <sodipodi:namedview
     inkscape:document-rotation="0"
     inkscape:current-layer="svg"
     inkscape:window-maximized="1"
     inkscape:window-y="0"
     inkscape:window-x="0"
     inkscape:cy="7.0290364"
     inkscape:cx="15.909323"
     inkscape:zoom="5.3636364"
     showgrid="false"
     id="namedview16"
     inkscape:window-height="1022"
     inkscape:window-width="1920"
     inkscape:pageshadow="2"
     inkscape:pageopacity="0"
     guidetolerance="10"
     gridtolerance="10"
     objecttolerance="10"
     borderopacity="1"
     bordercolor="#666666"
     pagecolor="#ffffff" />
  <defs
     id="defs81">
    <style
       type="text/css"
       id="current-color-scheme">
      .ColorScheme-Text {
        color:#7B7C7E;
      }
      .ColorScheme-Background{
        color:#EFF0F1;
      }
      .ColorScheme-Highlight{
        color:#3DAEE6;
      }
      .ColorScheme-ViewText {
        color:#7B7C7E;
      }
      .ColorScheme-ViewBackground{
        color:#FCFCFC;
      }
      .ColorScheme-ViewHover {
        color:#3DAEE6;
      }
      .ColorScheme-ViewFocus{
        color:#1E92FF;
      }
      .ColorScheme-ButtonText {
        color:#7B7C7E;
      }
      .ColorScheme-ButtonBackground{
        color:#EFF0F1;
      }
      .ColorScheme-ButtonHover {
        color:#3DAEE6;
      }
      .ColorScheme-ButtonFocus{
        color:#1E92FF;
      }
</style>
    <style
       id="current-color-scheme-9"
       type="text/css">      .ColorScheme-Text {
        color:#31363b;
      }
      .ColorScheme-Background{
        color:#eff0f1;
      }
      .ColorScheme-ViewText {
        color:#31363b;
      }
      .ColorScheme-ViewBackground{
        color:#fcfcfc;
      }
      .ColorScheme-ViewHover {
        color:#3daee9;
      }
      .ColorScheme-ViewFocus{
        color:#3daee9;
      }
      .ColorScheme-ButtonText {
        color:#31363b;
      }
      .ColorScheme-ButtonBackground{
        color:#eff0f1;
      }
      .ColorScheme-ButtonHover {
        color:#3daee9;
      }
      .ColorScheme-ButtonFocus{
        color:#3daee9;
      }</style>
  </defs>
  <metadata
     id="metadata34">
    <rdf:RDF>
      <cc:Work
         rdf:about="">
        <dc:format>image/svg+xml</dc:format>
        <dc:type
           rdf:resource="http://purl.org/dc/dcmitype/StillImage" />
        <dc:title />
      </cc:Work>
    </rdf:RDF>
  </metadata>
  <g
     id="22-22-kdeconnect"
     transform="translate(-789.46575,-1781.6822)">
    <rect
       style="opacity:0.01000001;fill:#eff0f1;fill-opacity:0.00392157;stroke:none"
       id="rect7689"
       y="1781.6821"
       x="789.4657"
       ry="0"
       rx="0"
       height="21.999971"
       width="22.000002" />
    <path
       class="ColorScheme-Text"
       id="path3005"
       transform="translate(764.4657,1781.6821)"
       d="m 30,3 0,16 12,0 0,-16 z m 1,1 10,0 0,14 -10,0 z m 3,1 0,1 4,0 0,-1 z m -2,2 0,10 8,0 0,-10 z m 3.571922,2.5625 0,1.90625 1.375,-1.875 1.125,0.25 -1.4375,1.875 1.4375,1.96875 -1.125,0.34375 -1.375,-2.03125 0,1.84375 -1.0625,0.15625 0,-4.34375 z"
       style="fill:#0b0c0d;fill-opacity:1;stroke:none" />
  </g>
  <g
     transform="matrix(1.4545461,0,0,1.4545461,-1148.3143,-2626.5388)"
     id="kdeconnect">
    <rect
       width="22.000002"
       height="21.999971"
       rx="0"
       ry="0"
       x="789.4657"
       y="1781.6821"
       id="rect2988"
       style="opacity:0.01000001;fill:#eff0f1;fill-opacity:0.00392157;stroke:none" />
    <path
       class="ColorScheme-Text"
       id="path2990"
       transform="matrix(0.68749969,0,0,0.68749969,772.27817,1805.0571)"
       d="m 32,-30 0,24 18,0 0,-24 -18,0 z m 1,1 16,0 0,22 -16,0 0,-22 z m 5.09375,1 0,1 5.90625,0 0,-1 -5.90625,0 z m -4.21875,2 0,18 14.125,0 0,-18 -14.125,0 z m 7.96875,3.71875 -0.03125,3.1875 2.3125,-3.125 1.875,0.4375 -2.40625,3.09375 2.375,3.28125 -1.8125,0.59375 -2.34375,-3.40625 0,3.0625 -1.75,0.28125 0,-7.25 1.78125,-0.15625 z m -4,1.75 c 0.01993,0 0.04476,0.01525 0.0625,0.03125 l 1.3125,0.84375 c 0.162531,-0.08815 0.323025,-0.156205 0.5,-0.21875 l 0,0.71875 c -0.972495,0.437237 -1.625,1.428536 -1.625,2.5625 0,1.541819 1.237307,2.78125 2.78125,2.78125 1.086531,0 2.037425,-0.627395 2.5,-1.53125 0.386778,0.565528 0.6875,1 0.6875,1 0.01309,0.02182 0.04039,0.04725 0.0625,0.03125 l 0.125,-0.03125 0.46875,0.75 c 0.02182,0.03346 0.02924,0.09591 0,0.125 l -0.6875,0.6875 c -0.02996,0.03491 -0.08966,0.02473 -0.125,0 L 42.625,-13.625 c -0.262822,0.154473 -0.542383,0.293545 -0.84375,0.375 l -0.34375,1.46875 c -0.0096,0.04073 -0.05273,0.0625 -0.09375,0.0625 l -0.96875,0 c -0.04233,0 -0.08502,-0.02177 -0.09375,-0.0625 L 39.96875,-13.25 c -0.292233,-0.07869 -0.556282,-0.196695 -0.8125,-0.34375 l -1.3125,0.78125 c -0.03505,0.01745 -0.09591,0.02909 -0.125,0 L 37.03125,-13.5 c -0.03025,-0.02909 -0.02327,-0.09009 0,-0.125 l 0.84375,-1.28125 c -0.157222,-0.275927 -0.2982,-0.558345 -0.375,-0.875 L 36.0625,-16.125 C 36.022645,-16.135182 36,-16.178023 36,-16.21875 l 0,-0.96875 c 0,-0.04364 0.02134,-0.07775 0.0625,-0.09375 l 1.5,-0.3125 c 0.08192,-0.2736 0.200332,-0.540523 0.34375,-0.78125 l -0.8125,-1.3125 c -0.0208,-0.03346 -0.02895,-0.09591 0,-0.125 l 0.6875,-0.6875 c 0.01498,-0.0058 0.04257,-0.03125 0.0625,-0.03125 z"
       style="fill:#0b0c0d;fill-opacity:1;stroke:none" />
  </g>
  <g
     id="16-16-kdeconnect"
     transform="matrix(0.72727028,0,0,0.72727028,-574.15494,-1269.7646)">
    <rect
       style="opacity:0.01000001;fill:#eff0f1;fill-opacity:0.00392157;stroke:none"
       id="rect2996"
       y="1781.6821"
       x="789.4657"
       ry="0"
       rx="0"
       height="21.999971"
       width="22.000002" />
    <path
       class="ColorScheme-Text"
       id="path3130"
       transform="translate(789.4657,1781.6821)"
       d="m 4.1249442,2.7499644 0,16.4999926 13.7500458,0 0,-16.4999926 z m 1.3750155,1.3751323 10.9999953,0 0,13.7500463 -10.9999953,0 z m 2.7499984,-1.329e-4 0,1.3751376 5.5000189,0 0,-1.3751376 z m -1.3750047,2.7501422 0,9.625032 8.2500276,0 0,-9.625032 z"
       style="fill:#0b0c0d;fill-opacity:1;stroke:none" />
  </g>
</svg>
