<?xml version="1.0" encoding="UTF-8" standalone="no"?>
<svg
   xmlns:dc="http://purl.org/dc/elements/1.1/"
   xmlns:cc="http://creativecommons.org/ns#"
   xmlns:rdf="http://www.w3.org/1999/02/22-rdf-syntax-ns#"
   xmlns:svg="http://www.w3.org/2000/svg"
   xmlns="http://www.w3.org/2000/svg"
   xmlns:sodipodi="http://sodipodi.sourceforge.net/DTD/sodipodi-0.dtd"
   xmlns:inkscape="http://www.inkscape.org/namespaces/inkscape"
   viewBox="0 0 22 22"
   id="svg"
   version="1.1"
   width="100%"
   height="100%"
   sodipodi:docname="konv_message.svg"
   inkscape:version="0.92.4 (5da689c313, 2019-01-14)">
  <sodipodi:namedview
     pagecolor="#ffffff"
     bordercolor="#666666"
     borderopacity="1"
     objecttolerance="10"
     gridtolerance="10"
     guidetolerance="10"
     inkscape:pageopacity="0"
     inkscape:pageshadow="2"
     inkscape:window-width="1280"
     inkscape:window-height="977"
     id="namedview9"
     showgrid="false"
     inkscape:zoom="10.727273"
     inkscape:cx="-2.563559"
     inkscape:cy="11"
     inkscape:window-x="0"
     inkscape:window-y="0"
     inkscape:window-maximized="1"
     inkscape:current-layer="svg" />
  <defs
     id="defs81">
    <style
       id="current-color-scheme"
       type="text/css">
      .ColorScheme-Text {
        color:#7B7C7E;
      }
      .ColorScheme-Background{
        color:#EFF0F1;
      }
      .ColorScheme-Highlight{
        color:#3DAEE6;
      }
      .ColorScheme-ViewText {
        color:#7B7C7E;
      }
      .ColorScheme-ViewBackground{
        color:#FCFCFC;
      }
      .ColorScheme-ViewHover {
        color:#3DAEE6;
      }
      .ColorScheme-ViewFocus{
        color:#1E92FF;
      }
      .ColorScheme-ButtonText {
        color:#7B7C7E;
      }
      .ColorScheme-ButtonBackground{
        color:#EFF0F1;
      }
      .ColorScheme-ButtonHover {
        color:#3DAEE6;
      }
      .ColorScheme-ButtonFocus{
        color:#1E92FF;
      }
</style>
  </defs>
  <metadata
     id="metadata34">
    <rdf:RDF>
      <cc:Work
         rdf:about="">
        <dc:format>image/svg+xml</dc:format>
        <dc:type
           rdf:resource="http://purl.org/dc/dcmitype/StillImage" />
        <dc:title />
      </cc:Work>
    </rdf:RDF>
  </metadata>
  <g
     id="konv_message"
     transform="translate(0,-2)">
    <rect
       style="fill:#ffffff;fill-opacity:0.01000001;stroke:none"
       id="rect3009"
       width="22"
       height="22"
       x="0"
       y="2" />
    <path
       class="ColorScheme-Text"
       id="path2998"
       d="m 11,4.9999794 c -5.5228476,0 -10,3.581722 -10,7.9999996 0,1.831541 0.6783416,3.678342 2,5 1,1 1.59375,1.375 0,3 3,0 3,-1 3,-1 1.6568319,0.45258 3.496831,0.997289 5,1 5.522839,0.01 10,-3.581722 10,-8 C 21,8.5817014 16.522848,4.9999794 11,4.9999794 z m 4,3 c 0.554,0 1,0.446 1,1 l 0,2.9999996 c 0.554,0 1,0.446 1,1 0,0.554 -0.446,1 -1,1 l 0,3 c 0,0.554 -0.446,1 -1,1 -0.1385,0 -0.255281,-0.04328 -0.375,-0.09375 C 13.132307,17.464958 9,14.999979 9,14.999979 l -1,0 0,3 c 0,0.554 -0.446,1 -1,1 -0.554,0 -1,-0.446 -1,-1 l 0,-3 -1,0 c -0.554,0 -1,-0.446 -1,-1 l 0,-2 c 0,-0.554 0.446,-1 1,-1 l 4,0 c 0,0 4.132307,-2.4649789 5.625,-2.9062496 0.119719,-0.050469 0.2365,-0.09375 0.375,-0.09375 z"
       style="color:#3daee9;fill:#00aa7f;fill-opacity:1;opacity:0.4" />
  </g>
</svg>
