<?xml version="1.0" encoding="UTF-8" standalone="no"?>
<svg
   xmlns:dc="http://purl.org/dc/elements/1.1/"
   xmlns:cc="http://creativecommons.org/ns#"
   xmlns:rdf="http://www.w3.org/1999/02/22-rdf-syntax-ns#"
   xmlns:svg="http://www.w3.org/2000/svg"
   xmlns="http://www.w3.org/2000/svg"
   xmlns:sodipodi="http://sodipodi.sourceforge.net/DTD/sodipodi-0.dtd"
   xmlns:inkscape="http://www.inkscape.org/namespaces/inkscape"
   inkscape:version="1.0 (4035a4fb49, 2020-05-01)"
   sodipodi:docname="media.svg"
   width="22"
   height="22"
   id="svg7229"
   version="1.0">
  <sodipodi:namedview
     inkscape:document-rotation="0"
     inkscape:current-layer="svg7229"
     inkscape:window-maximized="1"
     inkscape:window-y="0"
     inkscape:window-x="0"
     inkscape:cy="-15.969654"
     inkscape:cx="-4.2019632"
     inkscape:zoom="2.8368214"
     showgrid="false"
     id="namedview43"
     inkscape:window-height="1022"
     inkscape:window-width="1920"
     inkscape:pageshadow="2"
     inkscape:pageopacity="0"
     guidetolerance="10"
     gridtolerance="10"
     objecttolerance="10"
     borderopacity="1"
     bordercolor="#666666"
     pagecolor="#ffffff">
    <inkscape:grid
       id="grid849"
       type="xygrid" />
  </sodipodi:namedview>
  <metadata
     id="metadata45">
    <rdf:RDF>
      <cc:Work
         rdf:about="">
        <dc:format>image/svg+xml</dc:format>
        <dc:type
           rdf:resource="http://purl.org/dc/dcmitype/StillImage" />
        <dc:title />
      </cc:Work>
    </rdf:RDF>
  </metadata>
  <defs
     id="defs7231">
    <style
       id="current-color-scheme"
       type="text/css">
      .ColorScheme-Text {
        color:#31363b;
      }
      .ColorScheme-Background{
        color:#eff0f1;
      }
      .ColorScheme-ViewText {
        color:#31363b;
      }
      .ColorScheme-ViewBackground{
        color:#ffffff;
      }
      .ColorScheme-ViewHover {
        color:#000000;
      }
      .ColorScheme-ViewFocus{
        color:#5a5a5a;
      }
      .ColorScheme-ButtonText {
        color:#31363b;
      }
      .ColorScheme-ButtonBackground{
        color:#E9E8E8;
      }
      .ColorScheme-ButtonHover {
        color:#1489ff;
      }
      .ColorScheme-ButtonFocus{
        color:#2B74C7;
      }
</style>
  </defs>
  <g
     id="layer1"
     transform="translate(-214.53572,-404.50504)">
    <g
       transform="matrix(1.4999765,0,0,1.4999765,209.03579,-1146.5136)"
       id="media-playback-pause"
       style="fill:currentColor"
       class="ColorScheme-Text">
      <rect
         style="opacity:0.01000001;fill:#ed1515;fill-opacity:0.00392157;stroke:none"
         id="rect3003-0"
         width="14.666897"
         height="14.666837"
         x="3.6666775"
         y="1034.0287" />
      <path
         inkscape:connector-curvature="0"
         id="rect3287-9"
         style="color:#31363b;fill:#4387ca;fill-opacity:1;stroke-width:0.99999946"
         d="m 11.976518,1038.6123 h 2.008026 v 5.334 h -2.008026 z m -4.0160683,0 h 2.0080326 v 5.334 H 7.9604497 Z"
         class="ColorScheme-Text" />
    </g>
    <g
       transform="matrix(1.4999765,0,0,1.4999765,233.03531,-1146.5136)"
       id="media-playback-start"
       style="fill:currentColor"
       class="ColorScheme-Text">
      <rect
         style="opacity:0.01000001;fill:#ed1515;fill-opacity:0.00392157;stroke:none"
         id="rect3003-1"
         width="14.666897"
         height="14.666837"
         x="3.6669974"
         y="1034.0287" />
      <path
         sodipodi:nodetypes="cccc"
         inkscape:connector-curvature="0"
         id="path3357-8"
         style="color:#31363b;fill:#4387ca;fill-opacity:1;stroke-width:0.99999976"
         d="m 9.2723612,1043.8008 4.4613388,-2.372 -4.5432827,-2.6066 z"
         class="ColorScheme-Text" />
    </g>
    <g
       transform="matrix(1.4999765,0,0,1.4999765,257.03484,-1146.5136)"
       id="media-playback-stop"
       style="fill:#31363b">
      <rect
         style="opacity:0.01000001;fill:#ed1515;fill-opacity:0.00392157;stroke:none"
         id="rect3003-3"
         width="14.666897"
         height="14.666837"
         x="3.6673107"
         y="1034.0287" />
      <path
         inkscape:connector-curvature="0"
         id="rect3274-5"
         style="color:#31363b;fill:#4387ca;fill-opacity:1;stroke-width:0.99999976"
         d="m 8.3340506,1038.6954 h 4.7207404 v 4.6064 H 8.3340506 Z"
         class="ColorScheme-Text" />
    </g>
    <g
       transform="matrix(1.4999765,0,0,1.4999765,281.03438,-1146.5136)"
       id="media-record">
      <rect
         style="opacity:0.01000001;fill:#ed1515;fill-opacity:0.00392157;stroke:none"
         id="rect3003-03"
         width="14.666897"
         height="14.666837"
         x="3.6676176"
         y="1034.0287" />
      <rect
         ry="5.3324966"
         y="1036.0297"
         x="5.669291"
         height="10.664993"
         width="10.661418"
         id="rect3274-0"
         style="fill:#ff557f;fill-opacity:1" />
    </g>
    <g
       transform="matrix(1.4999765,0,0,1.4999765,305.03389,-1146.5136)"
       id="media-seek-backward"
       style="fill:currentColor"
       class="ColorScheme-Text">
      <rect
         style="opacity:0.01000001;fill:#ed1515;fill-opacity:0.00392157;stroke:none"
         id="rect3003-07"
         width="14.666897"
         height="14.666837"
         x="3.6679442"
         y="1034.0287" />
      <path
         inkscape:connector-curvature="0"
         id="path4148-6"
         style="color:#31363b;fill:#4387ca;fill-opacity:1;stroke-width:1.25876296"
         d="m 10.733727,1045.1728 -4.4977424,-3.8309 4.4977424,-3.8299 z m 4.497731,0 -4.497731,-3.8309 4.497731,-3.8299 z"
         class="ColorScheme-Text" />
    </g>
    <g
       transform="matrix(1.4999765,0,0,1.4999765,329.08783,-1146.5136)"
       id="media-seek-forward"
       style="fill:currentColor"
       class="ColorScheme-Text">
      <rect
         style="opacity:0.01000001;fill:#ed1515;fill-opacity:0.00392157;stroke:none"
         id="rect3003-2"
         width="14.666897"
         height="14.666837"
         x="3.6319835"
         y="1034.0287" />
      <path
         inkscape:connector-curvature="0"
         id="path4148-8"
         style="color:#31363b;fill:#4387ca;fill-opacity:1;stroke-width:1.24492085"
         d="m 11.708111,1045.3757 4.351399,-3.9002 -4.351399,-3.9013 z m -4.3514024,0 4.3514024,-3.9002 -4.3514024,-3.9013 z"
         class="ColorScheme-Text" />
    </g>
    <g
       transform="matrix(1.4999765,0,0,1.4999765,353.03297,-1146.5136)"
       id="media-skip-backward"
       style="fill:currentColor"
       class="ColorScheme-Text">
      <rect
         style="opacity:0.01000001;fill:#ed1515;fill-opacity:0.00392157;stroke:none"
         id="rect3003-9"
         width="14.666897"
         height="14.666837"
         x="3.6685574"
         y="1034.0287" />
      <path
         inkscape:connector-curvature="0"
         style="color:#31363b;fill:#4387ca;fill-opacity:1;stroke-width:1.38136268"
         d="m 7.0892777,1037.6486 v 7.1268 h 2.6018136 v -3.5643 -3.5625 z m 2.6018136,3.5625 5.2036467,3.5643 v -7.1268 z"
         id="rect3356-04"
         class="ColorScheme-Text" />
    </g>
    <g
       transform="matrix(1.4999765,0,0,1.4999765,377.03248,-1146.5136)"
       id="media-skip-forward"
       style="fill:currentColor"
       class="ColorScheme-Text">
      <rect
         style="opacity:0.01000001;fill:#ed1515;fill-opacity:0.00392157;stroke:none"
         id="rect3003-7"
         width="14.666897"
         height="14.666837"
         x="3.668884"
         y="1034.0287" />
      <path
         inkscape:connector-curvature="0"
         id="rect3402-4"
         style="color:#31363b;fill:#4387ca;fill-opacity:1;stroke-width:1.39435482"
         d="m 12.602573,1037.6313 h 2.617825 v 7.1948 h -2.617825 z m -5.235631,7.1948 5.235638,-3.5976 -5.235638,-3.5972 z"
         class="ColorScheme-Text" />
    </g>
    <g
       transform="matrix(1.2499744,0,0,1.2499744,404.28584,-886.17115)"
       id="media-eject">
      <rect
         style="opacity:0.01000001;fill:#ed1515;fill-opacity:0.00392157;stroke:none"
         id="rect3003"
         width="17.600361"
         height="17.600325"
         x="1.7999408"
         y="1032.4021" />
      <path
         inkscape:connector-curvature="0"
         style="color:#31363b;opacity:1;fill:#4387ca;fill-opacity:1;stroke-width:1.45938611"
         d="m 10.806161,1036.2414 -5.2845105,6.3526 H 16.090668 Z m -5.2845105,7.8594 v 1.6664 H 16.090668 v -1.6664 z"
         class="ColorScheme-Text"
         id="path6" />
    </g>
    <g
       transform="matrix(1.4999765,0,0,1.4999765,209.03579,-1122.5136)"
       id="media-playback-paused"
       style="fill:currentColor"
       class="ColorScheme-Text">
      <rect
         style="opacity:0.01000001;fill:#ed1515;fill-opacity:0.00392157;stroke:none"
         id="rect3003-0-3"
         width="14.666897"
         height="14.666837"
         x="3.6666775"
         y="1034.0287" />
      <path
         sodipodi:nodetypes="ccccccccccssssssssss"
         inkscape:connector-curvature="0"
         id="rect3287-9-5"
         style="color:#31363b;fill:#21262f;fill-opacity:1;stroke:none"
         d="m 11.666692,1039.3621 h 1.333385 v 4.0002 h -1.333385 z m -2.6667693,0 h 1.3333853 v 4.0002 H 8.9999227 Z M 11,1036.0287 c -2.9547808,0 -5.3335394,2.3787 -5.3335394,5.3335 0,2.9548 2.3787586,5.3335 5.3335394,5.3335 2.954781,0 5.333539,-2.3787 5.333539,-5.3335 0,-2.9548 -2.378758,-5.3335 -5.333539,-5.3335 z m 0.08789,1.1062 c 2.585433,0 4.227396,1.6418 4.227396,4.2273 0,2.5855 -1.729853,4.3152 -4.315286,4.3152 -2.5854332,0 -4.2273952,-1.7297 -4.2273952,-4.3152 0,-2.5855 1.7298524,-4.2273 4.3152852,-4.2273 z"
         class="ColorScheme-Text" />
    </g>
    <g
       transform="matrix(1.4999765,0,0,1.4999765,233.03531,-1122.5136)"
       id="media-playback-playing"
       style="fill:currentColor"
       class="ColorScheme-Text">
      <rect
         style="opacity:0.01000001;fill:#ed1515;fill-opacity:0.00392157;stroke:none"
         id="rect3003-1-2"
         width="14.666897"
         height="14.666837"
         x="3.6669974"
         y="1034.0287" />
      <path
         sodipodi:nodetypes="ccccssssssssss"
         inkscape:connector-curvature="0"
         id="path3357-8-9"
         style="color:#31363b;fill:#21262f;fill-opacity:1;stroke:none"
         d="m 9.4907536,1043.2746 3.8095054,-1.8245 -3.8095054,-2.2639 z M 11,1036.0283 c -2.9549601,0 -5.333863,2.3789 -5.333863,5.3339 0,2.955 2.3789029,5.3339 5.333863,5.3339 2.95496,0 5.333863,-2.3789 5.333863,-5.3339 0,-2.955 -2.378903,-5.3339 -5.333863,-5.3339 z m 0,0.9305 c 2.58559,0 4.315569,1.8178 4.315569,4.4034 0,2.5856 -1.642089,4.3155 -4.227679,4.3155 -2.5855897,0 -4.4034587,-1.642 -4.4034587,-4.2276 0,-2.5856 1.7299786,-4.4913 4.3155687,-4.4913 z"
         class="ColorScheme-Text" />
    </g>
    <g
       transform="matrix(1.4999765,0,0,1.4999765,257.03484,-1122.5136)"
       id="media-playback-stopped"
       style="fill:currentColor"
       class="ColorScheme-Text">
      <rect
         style="opacity:0.01;fill:#ed1515;fill-opacity:0.00392157;stroke:none"
         id="rect3003-3-2"
         width="14.666897"
         height="14.666837"
         x="3.6673107"
         y="1034.0287" />
      <path
         sodipodi:nodetypes="cccccssssssssss"
         inkscape:connector-curvature="0"
         style="color:#31363b;fill:#21262f;fill-opacity:1"
         class="ColorScheme-Text"
         d="m 8.9999227,1039.3621 h 4.0001543 v 4.0002 H 8.9999227 Z M 11,1036.0287 c -2.9547808,0 -5.3335394,2.3787 -5.3335394,5.3335 0,2.9548 2.3787586,5.3335 5.3335394,5.3335 2.954781,0 5.333539,-2.3787 5.333539,-5.3335 0,-2.9548 -2.378758,-5.3335 -5.333539,-5.3335 z m 0.08789,1.0183 c 2.585433,0 4.227396,1.7297 4.227396,4.3152 0,2.5855 -1.641963,4.2273 -4.227396,4.2273 -2.5854328,0 -4.3152852,-1.7297 -4.3152852,-4.3152 0,-2.5855 1.7298524,-4.2273 4.3152852,-4.2273 z"
         id="path41" />
    </g>
  </g>
</svg>
