<?xml version="1.0" encoding="UTF-8" standalone="no"?>
<svg
   xmlns:dc="http://purl.org/dc/elements/1.1/"
   xmlns:cc="http://creativecommons.org/ns#"
   xmlns:rdf="http://www.w3.org/1999/02/22-rdf-syntax-ns#"
   xmlns:svg="http://www.w3.org/2000/svg"
   xmlns="http://www.w3.org/2000/svg"
   xmlns:sodipodi="http://sodipodi.sourceforge.net/DTD/sodipodi-0.dtd"
   xmlns:inkscape="http://www.inkscape.org/namespaces/inkscape"
   width="5.8208332mm"
   height="5.8208332mm"
   viewBox="0 0 22 22"
   version="1.1"
   id="svg881"
   inkscape:version="1.0 (4035a4fb49, 2020-05-01)"
   sodipodi:docname="notification.svg">
  <defs
     id="defs875" />
  <sodipodi:namedview
     id="base"
     pagecolor="#ffffff"
     bordercolor="#666666"
     borderopacity="1.0"
     inkscape:pageopacity="0.0"
     inkscape:pageshadow="2"
     inkscape:zoom="3.3783993"
     inkscape:cx="83.745831"
     inkscape:cy="-1.4916706"
     inkscape:document-units="px"
     inkscape:current-layer="layer1"
     showgrid="false"
     inkscape:window-width="1920"
     inkscape:window-height="1026"
     inkscape:window-x="0"
     inkscape:window-y="0"
     inkscape:window-maximized="1"
     inkscape:lockguides="true"
     inkscape:document-rotation="0" />
  <metadata
     id="metadata878">
    <rdf:RDF>
      <cc:Work
         rdf:about="">
        <dc:format>image/svg+xml</dc:format>
        <dc:type
           rdf:resource="http://purl.org/dc/dcmitype/StillImage" />
        <dc:title />
      </cc:Work>
    </rdf:RDF>
  </metadata>
  <g
     inkscape:label="Layer 1"
     inkscape:groupmode="layer"
     id="layer1"
     transform="translate(-209.82493,-686.24546)">
    <g
       id="notification-progress-active"
       transform="translate(248.82493,685.24546)">
      <path
         style="fill:none"
         inkscape:connector-curvature="0"
         id="empty-rectangle"
         d="M 1,1 H 23 V 23 H 1 Z" />
      <circle
         id="circle-blue"
         cx="12"
         cy="12"
         r="8"
         class="ColorScheme-ButtonFocus"
         style="fill:#008662;fill-opacity:1" />
    </g>
    <g
       id="notification-inactive"
       transform="translate(208.82493,685.24546)">
      <path
         style="fill:none"
         inkscape:connector-curvature="0"
         d="M 1,1 H 23 V 23 H 1 Z"
         id="path6" />
      <path
         inkscape:connector-curvature="0"
         d="M 10.269531,17 A 2,2 0 0 0 9.9999998,18 2,2 0 0 0 12,20 2,2 0 0 0 14,18 2,2 0 0 0 13.728516,17 Z M 12,4 A 1,1 0 0 0 11,5 1,1 0 0 0 11.0098,5.1289062 3.9999999,3.9999999 0 0 0 7.9999998,9 c 0,3 -1,4 -3,6 v 1 H 19 V 15 C 17,13 16,12 16,9 A 3.9999999,3.9999999 0 0 0 12.990234,5.1289062 1,1 0 0 0 13,5 1,1 0 0 0 12,4 Z m 0,2 a 3,3 0 0 1 3,3 c 0,3 0.585938,4 2.585938,6 H 6.4140618 c 2,-2 2.5859375,-3 2.5859375,-6 A 3,3 0 0 1 12,6 Z"
         class="ColorScheme-Text"
         id="path8"
         style="fill:#232629;fill-opacity:1;fill-rule:evenodd" />
    </g>
    <g
       id="notification-progress-inactive"
       transform="translate(248.82493,725.24546)">
      <path
         style="fill:none"
         inkscape:connector-curvature="0"
         id="path10"
         d="M 1,1 H 23 V 23 H 1 Z" />
      <circle
         id="circle-transparent"
         cx="12"
         cy="12"
         r="8"
         class="ColorScheme-Text"
         style="opacity:0.4;fill:#008662;fill-opacity:1" />
    </g>
    <g
       id="notification-active"
       transform="translate(208.82493,725.24546)">
      <path
         style="fill:none"
         inkscape:connector-curvature="0"
         d="M 1,1 H 23 V 23 H 1 Z"
         id="path14" />
      <path
         inkscape:connector-curvature="0"
         d="M 6.3457031,3.345703 A 7.9999995,7.9999995 0 0 0 4,9 H 5 A 7,7 0 0 1 7.0527344,4.052734 Z m 11.3085939,0 -0.707031,0.707031 A 7,7 0 0 1 19,9 h 1 A 7.9999995,7.9999995 0 0 0 17.654297,3.345703 Z M 16.238281,4.761719 15.529297,5.470703 A 5,5 0 0 1 17,9 h 1 A 6,6 0 0 0 16.238281,4.761719 Z M 7.765625,4.765625 A 6,6 0 0 0 6,9 H 7 A 5,5 0 0 1 8.4667969,5.466797 Z"
         class="ColorScheme-Text"
         id="path16"
         style="fill:#008662;fill-opacity:1;fill-rule:evenodd" />
      <path
         inkscape:connector-curvature="0"
         d="M 10.269531,17 A 2,2 0 0 0 10,18 a 2,2 0 0 0 2,2 2,2 0 0 0 2,-2 2,2 0 0 0 -0.271484,-1 z M 12,4 A 1,1 0 0 0 11,5 1,1 0 0 0 11.0098,5.128906 3.9999999,3.9999999 0 0 0 8,9 c 0,3 -1,4 -3,6 v 1 H 19 V 15 C 17,13 16,12 16,9 A 3.9999999,3.9999999 0 0 0 12.990234,5.128906 1,1 0 0 0 13,5 1,1 0 0 0 12,4 Z m 0,2 a 3,3 0 0 1 3,3 c 0,3 0.585938,4 2.585938,6 H 6.414062 c 2,-2 2.5859375,-3 2.5859375,-6 A 3,3 0 0 1 12,6 Z"
         class="ColorScheme-Text"
         id="path18"
         style="fill:#232629;fill-opacity:1;fill-rule:evenodd" />
    </g>
    <path
       inkscape:connector-curvature="0"
       id="expander-bottom"
       d="m 191.82493,709.24546 2,-2 2,2 z"
       class="ColorScheme-Text"
       style="fill:#008662;fill-opacity:1" />
    <path
       inkscape:connector-curvature="0"
       id="expander-top"
       d="m 191.82493,703.24546 2,2 2,-2 z"
       class="ColorScheme-Text"
       style="fill:#008662;fill-opacity:1" />
    <path
       inkscape:connector-curvature="0"
       id="expander-right"
       d="m 196.82493,704.24546 -2,2 2,2 z"
       class="ColorScheme-Text"
       style="fill:#008662;fill-opacity:1" />
    <path
       inkscape:connector-curvature="0"
       id="expander-left"
       d="m 190.82493,704.24546 2,2 -2,2 z"
       class="ColorScheme-Text"
       style="fill:#008662;fill-opacity:1" />
    <g
       id="notification-disabled"
       transform="translate(208.82493,645.24546)">
      <path
         style="fill:none"
         inkscape:connector-curvature="0"
         d="M 1,1 H 23 V 23 H 1 Z"
         id="path25" />
      <path
         inkscape:connector-curvature="0"
         id="strikethrough"
         d="M 4,4.707031 19.292969,20 20,19.292969 4.7070312,4 Z"
         style="fill:#ff557f;fill-opacity:1" />
      <path
         inkscape:connector-curvature="0"
         d="M 12,4 A 1,1 0 0 0 11,5 1,1 0 0 0 11.0098,5.128906 3.9999999,3.9999999 0 0 0 8.7695652,6.648438 L 9.4863281,7.365234 A 3,3 0 0 1 12,6 3,3 0 0 1 15,9 c 0,3 0.585938,4 2.585938,6 h -0.464844 l 1,1 H 19 V 15 C 17,13 16,12 16,9 A 3.9999999,3.9999999 0 0 0 12.990234,5.128906 1,1 0 0 0 13,5 1,1 0 0 0 12,4 Z M 7.9472656,10.068359 C 7.7219031,12.273085 6.7411309,13.258869 5,15 v 1 h 8.878906 l -1,-1 H 6.4140625 C 7.8937066,13.520356 8.5962396,12.584141 8.8632812,10.984375 Z M 10.269531,17 A 2,2 0 0 0 10,18 a 2,2 0 0 0 2,2 2,2 0 0 0 2,-2 2,2 0 0 0 -0.271484,-1 z"
         class="ColorScheme-Text"
         id="path28"
         style="fill:#232629;fill-opacity:1;fill-rule:evenodd" />
    </g>
    <g
       id="notification-empty"
       transform="translate(248.82493,645.24546)">
      <path
         style="fill:none"
         inkscape:connector-curvature="0"
         id="path31"
         d="M 1,1 H 23 V 23 H 1 Z" />
      <path
         inkscape:connector-curvature="0"
         id="circle-outline"
         d="m 12,4 a 8,8 0 0 0 -8,8 8,8 0 0 0 8,8 8,8 0 0 0 8,-8 8,8 0 0 0 -8,-8 z m 0,1 a 7,7 0 0 1 7,7 7,7 0 0 1 -7,7 7,7 0 0 1 -7,-7 7,7 0 0 1 7,-7 z"
         class="ColorScheme-Text"
         style="fill:#232629;fill-opacity:1" />
    </g>
  </g>
</svg>
