<?xml version="1.0" encoding="UTF-8" standalone="no"?>
<svg
   xmlns:dc="http://purl.org/dc/elements/1.1/"
   xmlns:cc="http://creativecommons.org/ns#"
   xmlns:rdf="http://www.w3.org/1999/02/22-rdf-syntax-ns#"
   xmlns:svg="http://www.w3.org/2000/svg"
   xmlns="http://www.w3.org/2000/svg"
   xmlns:sodipodi="http://sodipodi.sourceforge.net/DTD/sodipodi-0.dtd"
   xmlns:inkscape="http://www.inkscape.org/namespaces/inkscape"
   inkscape:version="1.0 (4035a4fb49, 2020-05-01)"
   sodipodi:docname="preferences.svg"
   height="100%"
   width="100%"
   version="1.1"
   id="svg"
   viewBox="0 0 22 22">
  <sodipodi:namedview
     inkscape:document-rotation="0"
     inkscape:current-layer="svg"
     inkscape:window-maximized="1"
     inkscape:window-y="0"
     inkscape:window-x="0"
     inkscape:cy="-22.608489"
     inkscape:cx="-45.839987"
     inkscape:zoom="3.7926636"
     showgrid="false"
     id="namedview28"
     inkscape:window-height="1022"
     inkscape:window-width="1920"
     inkscape:pageshadow="2"
     inkscape:pageopacity="0"
     guidetolerance="10"
     gridtolerance="10"
     objecttolerance="10"
     borderopacity="1"
     bordercolor="#666666"
     pagecolor="#ffffff" />
  <defs
     id="defs81">
    <style
       type="text/css"
       id="current-color-scheme">
      .ColorScheme-Text {
        color:#7B7C7E;
      }
      .ColorScheme-Background{
        color:#EFF0F1;
      }
      .ColorScheme-Highlight{
        color:#3DAEE6;
      }
      .ColorScheme-ViewText {
        color:#7B7C7E;
      }
      .ColorScheme-ViewBackground{
        color:#FCFCFC;
      }
      .ColorScheme-ViewHover {
        color:#3DAEE6;
      }
      .ColorScheme-ViewFocus{
        color:#1E92FF;
      }
      .ColorScheme-ButtonText {
        color:#7B7C7E;
      }
      .ColorScheme-ButtonBackground{
        color:#EFF0F1;
      }
      .ColorScheme-ButtonHover {
        color:#3DAEE6;
      }
      .ColorScheme-ButtonFocus{
        color:#1E92FF;
      }
</style>
  </defs>
  <metadata
     id="metadata34">
    <rdf:RDF>
      <cc:Work
         rdf:about="">
        <dc:format>image/svg+xml</dc:format>
        <dc:type
           rdf:resource="http://purl.org/dc/dcmitype/StillImage" />
        <dc:title />
      </cc:Work>
    </rdf:RDF>
  </metadata>
  <g
     transform="translate(40,78)"
     id="preferences-system-bluetooth">
    <rect
       y="1"
       x="1"
       height="22"
       width="22"
       id="rect3009"
       style="fill:#ffffff;fill-opacity:0;stroke:none" />
    <path
       class="ColorScheme-Text"
       style="fill:#2e3440;fill-opacity:1"
       d="m 11,4 0,6 -3,-3 0,2 3,3 -3,3 0,2 3,-3 0,6 2,-2 3,-3 -3,-3 3,-3 -3,-3 -2,-2 z m 1,3 2,2 -2,2 0,-4 z m 0,6 2,2 -2,2 0,-4 z"
       id="rect2996" />
  </g>
  <g
     id="preferences-system-bluetooth-inactive"
     transform="translate(80,78)">
    <rect
       style="fill:#ffffff;fill-opacity:0;stroke:none"
       id="rect3007"
       width="22"
       height="22"
       x="1"
       y="1" />
    <path
       class="ColorScheme-Text"
       id="path3009"
       d="m 11,4 0,6 -3,-3 0,2 3,3 -3,3 0,2 3,-3 0,6 2,-2 3,-3 -3,-3 3,-3 -3,-3 -2,-2 z m 1,3 2,2 -2,2 0,-4 z m 0,6 2,2 -2,2 0,-4 z"
       style="opacity:0.4;fill:#2e3440;fill-opacity:1" />
  </g>
  <g
     transform="translate(0,78)"
     id="preferences-system-bluetooth-activated">
    <rect
       style="fill:#ffffff;fill-opacity:0;stroke:none"
       id="rect3783"
       width="22"
       height="22"
       x="1"
       y="1" />
    <path
       class="ColorScheme-Text"
       id="path3785"
       d="m 11,4 0,6 -3,-3 0,2 3,3 -3,3 0,2 3,-3 0,6 2,-2 3,-3 L 13,12 16,9 13,6 11,4 z M 4,5 C 3.4477153,5 3,5.4477153 3,6 3,6.5522847 3.4477153,7 4,7 4.5522847,7 5,6.5522847 5,6 5,5.4477153 4.5522847,5 4,5 z m 16,0 c -0.552285,0 -1,0.4477153 -1,1 0,0.5522847 0.447715,1 1,1 0.552285,0 1,-0.4477153 1,-1 0,-0.5522847 -0.447715,-1 -1,-1 z m -8,2 2,2 -2,2 0,-4 z m -8,4 c -0.5522847,0 -1,0.447715 -1,1 0,0.552285 0.4477153,1 1,1 0.5522847,0 1,-0.447715 1,-1 0,-0.552285 -0.4477153,-1 -1,-1 z m 16,0 c -0.552285,0 -1,0.447715 -1,1 0,0.552285 0.447715,1 1,1 0.552285,0 1,-0.447715 1,-1 0,-0.552285 -0.447715,-1 -1,-1 z m -8,2 2,2 -2,2 0,-4 z m -8,4 c -0.5522847,0 -1,0.447715 -1,1 0,0.552285 0.4477153,1 1,1 0.5522847,0 1,-0.447715 1,-1 0,-0.552285 -0.4477153,-1 -1,-1 z m 16,0 c -0.552285,0 -1,0.447715 -1,1 0,0.552285 0.447715,1 1,1 0.552285,0 1,-0.447715 1,-1 0,-0.552285 -0.447715,-1 -1,-1 z"
       style="fill:#2e3440;fill-opacity:1" />
  </g>
  <g
     transform="translate(0,-42)"
     id="preferences-desktop-display-randr">
    <rect
       y="1"
       x="1"
       height="22"
       width="22"
       id="rect3832"
       style="fill:#ffffff;fill-opacity:0;stroke:none" />
    <path
       class="ColorScheme-Text"
       d="m 7.0000091,19.999986 10.0000179,0 0,1.000014 -10.0000179,0 z m 3.0000049,-1.999998 3.999994,0 0,1.999983 -3.999994,0 z M 2,4.0000055 2,17.999973 l 19.999999,0 0,-13.9999675 z m 0.9999988,0.999999 18.0000012,0 0,9.9999725 -18.0000012,0 z"
       style="fill:#0b0c0d;fill-opacity:1;stroke:none"
       id="rect7235" />
    <path
       class="ColorScheme-Text"
       id="rect3018"
       d="m 4,10 4,4 -4,0 z"
       style="fill:#55aaff;fill-opacity:1;stroke:none" />
    <path
       style="fill:#00cc99;fill-opacity:1;stroke:none"
       d="M 20,10 16,6 20,6 z"
       id="path3028"
       class="ColorScheme-Text" />
  </g>
  <g
     transform="translate(-1,39)"
     id="preferences-desktop-notification">
    <rect
       style="fill:#ffffff;fill-opacity:0;stroke:none"
       id="rect3068"
       width="22"
       height="22"
       x="1"
       y="1" />
    <rect
       ry="7.999989"
       y="4"
       x="4.000011"
       height="15.999987"
       width="15.999978"
       id="rect4130-82-0"
       style="fill:#0b0c0d;fill-opacity:1;stroke:none" />
    <path
       id="rect4142-6"
       d="m 11.202644,7.1999826 -0.0026,7.2000124 1.599998,0 0.0026,-7.2000124 z m 0.799999,7.9999894 c -0.441822,0 -0.799999,0.358171 -0.799999,0.799999 0,0.441827 0.358177,0.799999 0.799999,0.799999 0.441822,0 0.799999,-0.358172 0.799999,-0.799999 0,-0.441828 -0.358177,-0.799999 -0.799999,-0.799999 z"
       style="fill:#00aa7f;fill-opacity:1;stroke:none" />
  </g>
  <g
     transform="translate(-39,-1)"
     id="g1203">
    <rect
       style="opacity:0.01000001;fill:#ed1515;fill-opacity:0.00392157;stroke:none"
       id="rect6486-3"
       width="22"
       height="22"
       x="39"
       y="1" />
    <path
       class="ColorScheme-Text"
       id="path6448"
       d="m 48.000534,4.0042669 -5.996801,4.9973335 -1.998933,0 0,5.9967996 1.998933,0 5.996801,4.997333 0.999466,0 0,-15.9914661 z"
       style="fill:#0b0c0d;fill-opacity:1;stroke:none" />
    <path
       class="ColorScheme-Text"
       id="rect3062"
       transform="translate(10,0)"
       d="m 45.71875,4.5625 -4.25,4.25 0.71875,0.71875 4.25,-4.25 -0.71875,-0.71875 z m 2.8125,4.375 -5.8125,1.53125 L 43,11.4375 48.78125,9.90625 48.53125,8.9375 z M 43,12.5625 l -0.28125,0.96875 5.8125,1.53125 0.25,-0.96875 L 43,12.5625 z m -0.8125,1.90625 -0.71875,0.71875 4.25,4.25 0.71875,-0.71875 -4.25,-4.25 z"
       style="fill:#2e3440;fill-opacity:1;stroke:none" />
  </g>
</svg>
