<?xml version="1.0" encoding="UTF-8" standalone="no"?>
<svg
   xmlns:dc="http://purl.org/dc/elements/1.1/"
   xmlns:cc="http://creativecommons.org/ns#"
   xmlns:rdf="http://www.w3.org/1999/02/22-rdf-syntax-ns#"
   xmlns:svg="http://www.w3.org/2000/svg"
   xmlns="http://www.w3.org/2000/svg"
   xmlns:xlink="http://www.w3.org/1999/xlink"
   xmlns:sodipodi="http://sodipodi.sourceforge.net/DTD/sodipodi-0.dtd"
   xmlns:inkscape="http://www.inkscape.org/namespaces/inkscape"
   version="1.1"
   id="svg5048"
   height="32"
   width="32"
   sodipodi:docname="start.svg"
   inkscape:version="0.92.4 (5da689c313, 2019-01-14)">
  <sodipodi:namedview
     pagecolor="#ffffff"
     bordercolor="#666666"
     borderopacity="1"
     objecttolerance="10"
     gridtolerance="10"
     guidetolerance="10"
     inkscape:pageopacity="0"
     inkscape:pageshadow="2"
     inkscape:window-width="1280"
     inkscape:window-height="977"
     id="namedview18"
     showgrid="false"
     inkscape:zoom="7.375"
     inkscape:cx="-23.457627"
     inkscape:cy="16"
     inkscape:window-x="0"
     inkscape:window-y="0"
     inkscape:window-maximized="1"
     inkscape:current-layer="svg5048" />
  <defs
     id="defs5050">
    <style
       type="text/css"
       id="current-color-scheme">      .ColorScheme-Text {
        color:#31363b;
      }
      .ColorScheme-Background{
        color:#eff0f1;
      }
      .ColorScheme-ViewText {
        color:#31363b;
      }
      .ColorScheme-ViewBackground{
        color:#fcfcfc;
      }
      .ColorScheme-ViewHover {
        color:#3daee9;
      }
      .ColorScheme-ViewFocus{
        color:#3daee9;
      }
      .ColorScheme-ButtonText {
        color:#31363b;
      }
      .ColorScheme-ButtonBackground{
        color:#eff0f1;
      }
      .ColorScheme-ButtonHover {
        color:#3daee9;
      }
      .ColorScheme-ButtonFocus{
        color:#3daee9;
      }</style>
    <linearGradient
       id="linearGradient12332">
      <stop
         id="stop12334"
         offset="0"
         style="stop-color:#29455d;stop-opacity:1" />
      <stop
         id="stop12336"
         offset="1"
         style="stop-color:#326a8f;stop-opacity:1" />
    </linearGradient>
    <linearGradient
       gradientUnits="userSpaceOnUse"
       y2="398.36761"
       x2="284.83643"
       y1="411.3353"
       x1="284.67773"
       id="linearGradient12338-7"
       xlink:href="#linearGradient12332"
       gradientTransform="matrix(3.473588,0,0,3.6358786,-956.23148,-1445.7732)" />
  </defs>
  <metadata
     id="metadata5053">
    <rdf:RDF>
      <cc:Work
         rdf:about="">
        <dc:format>image/svg+xml</dc:format>
        <dc:type
           rdf:resource="http://purl.org/dc/dcmitype/StillImage" />
        <dc:title />
      </cc:Work>
    </rdf:RDF>
  </metadata>
  <rect
     style="fill:#8b9299;fill-opacity:0;stroke:none"
     id="rect3024"
     width="20"
     height="60"
     x="864"
     y="-425.00003"
     ry="10" />
  <g
     id="start-here-kde">
    <rect
       ry="0"
       rx="0"
       y="0"
       x="0"
       height="32"
       width="32"
       id="rect15433"
       style="opacity:0.002;fill:#1e1e1e;fill-opacity:1;stroke:none;stroke-width:1;stroke-miterlimit:4;stroke-dasharray:none;stroke-opacity:1" />
    <g
       transform="matrix(0.4375,0,0,0.4375,2,2)"
       id="ttyr">
      <rect
         rx="8.3574257"
         ry="8.3253584"
         y="1.0589104"
         x="1"
         height="61.882179"
         width="61.882179"
         id="rect12330"
         style="opacity:1;fill:#00aa7f;fill-opacity:1;stroke:#55aaff;stroke-width:2;stroke-miterlimit:4;stroke-dasharray:none;stroke-opacity:1" />
      <rect
         style="opacity:0;fill:#ffffff;fill-opacity:1;stroke:none"
         id="rect3861"
         width="64"
         height="64"
         x="0"
         y="-1.3322676e-15" />
      <path
         class="ColorScheme-Text"
         d="m 35.816056,10.718149 -8.081085,0.735084 0,31.49434 7.994751,-1.143469 0,-13.427563 10.757515,14.897735 8.426425,-2.531959 L 43.897143,26.416314 55,12.907072 46.400902,11.044853 35.729722,24.554094 35.816056,10.718149 Z m -18.320582,7.677562 c -0.09138,0.0089 -0.19021,0.03276 -0.259005,0.09801 l -3.177183,3.005684 c -0.133436,0.126634 -0.149736,0.320435 -0.05178,0.47372 l 3.712465,5.799009 c -0.659191,1.048329 -1.194483,2.172864 -1.571316,3.365063 L 9.328078,32.476686 C 9.138275,32.513802 9,32.684736 9,32.86873 l 0,4.247164 c 0,0.179557 0.144355,0.333369 0.328077,0.375708 l 6.613367,1.51918 c 0.35363,1.380256 0.899978,2.701077 1.623127,3.90412 l -3.833334,5.521317 c -0.10692,0.154206 -0.08606,0.3599 0.05178,0.490057 l 3.177176,3.005686 c 0.133852,0.126232 0.339134,0.142043 0.500754,0.04897 l 6.009012,-3.446734 c 1.178593,0.643732 2.454583,1.159405 3.798801,1.502839 l 1.398648,6.370744 c 0.03923,0.180081 0.202784,0.310368 0.397145,0.310368 l 4.489492,0 c 0.188422,0 0.352391,-0.119702 0.39715,-0.294033 l 1.657655,-6.403413 c 1.386348,-0.353624 2.693427,-0.878581 3.902407,-1.551849 l 5.922671,3.675428 c 0.163279,0.100625 0.379606,0.08115 0.518024,-0.04898 l 3.159911,-3.005685 c 0.134264,-0.126761 0.167419,-0.320824 0.06907,-0.47372 l -2.158411,-3.365064 -0.707957,0.212353 c -0.102215,0.0298 -0.215501,-0.01384 -0.276278,-0.09801 0,0 -1.363435,-1.897385 -3.142642,-4.361509 -2.127872,3.938995 -6.46739,6.632111 -11.465473,6.632111 -7.102199,0 -12.864121,-5.450914 -12.864121,-12.169753 0,-4.942228 3.124016,-9.187083 7.5976,-11.091631 l 0,-3.136364 c -0.814178,0.269599 -1.600749,0.594866 -2.348348,0.980115 -9.2e-4,-5.63e-4 0.0016,-0.01559 0,-0.01639 L 17.75449,18.444656 c -0.0815,-0.05044 -0.167634,-0.05792 -0.259014,-0.04898 z"
         style="color:#31363b;fill:#5797c3;fill-opacity:1;stroke:none;stroke-opacity:1"
         id="path7227" />
      <path
         id="path2876"
         style="color:#31363b;fill:#1a1a1a;fill-opacity:1;stroke:#55aaff;stroke-opacity:1"
         d="m 35.816056,9 -8.081085,0.7350842 0,31.4943398 7.994751,-1.143469 0,-13.427563 10.757515,14.897735 8.426425,-2.531959 L 43.897143,24.698165 55,11.188923 46.400902,9.3267035 35.729722,22.835945 35.816056,9 Z m -18.320582,7.677562 c -0.09138,0.0089 -0.19021,0.03276 -0.259005,0.09801 l -3.177183,3.005684 c -0.133436,0.126634 -0.149736,0.320435 -0.05178,0.47372 l 3.712465,5.799009 c -0.659191,1.048329 -1.194483,2.172864 -1.571316,3.365063 L 9.328078,30.758537 C 9.138275,30.795653 9,30.966587 9,31.150581 l 0,4.247164 c 0,0.179557 0.144355,0.333369 0.328077,0.375708 l 6.613367,1.51918 c 0.35363,1.380256 0.899978,2.701077 1.623127,3.90412 l -3.833334,5.521317 c -0.10692,0.154206 -0.08606,0.3599 0.05178,0.490057 l 3.177176,3.005686 c 0.133852,0.126232 0.339134,0.142043 0.500754,0.04897 l 6.009012,-3.446734 c 1.178593,0.643732 2.454583,1.159405 3.798801,1.502839 l 1.398648,6.370744 C 28.706641,54.869713 28.870192,55 29.064553,55 l 4.489492,0 c 0.188422,0 0.352391,-0.119702 0.39715,-0.294033 l 1.657655,-6.403413 c 1.386348,-0.353624 2.693427,-0.878581 3.902407,-1.551849 l 5.922671,3.675428 c 0.163279,0.100625 0.379606,0.08115 0.518024,-0.04898 l 3.159911,-3.005685 c 0.134264,-0.126761 0.167419,-0.320824 0.06907,-0.47372 l -2.158411,-3.365064 -0.707957,0.212353 c -0.102215,0.0298 -0.215501,-0.01384 -0.276278,-0.09801 0,0 -1.363435,-1.897385 -3.142642,-4.361509 -2.127872,3.938995 -6.46739,6.632111 -11.465473,6.632111 -7.102199,0 -12.864121,-5.450914 -12.864121,-12.169753 0,-4.942228 3.124016,-9.187083 7.5976,-11.091631 l 0,-3.136364 c -0.814178,0.269599 -1.600749,0.594866 -2.348348,0.980115 -9.2e-4,-5.63e-4 0.0016,-0.01559 0,-0.01639 L 17.75449,16.726507 c -0.0815,-0.05044 -0.167634,-0.05792 -0.259014,-0.04898 z"
         class="ColorScheme-Text" />
    </g>
  </g>
</svg>
