<?xml version="1.0" encoding="UTF-8" standalone="no"?>
<svg
   xmlns:dc="http://purl.org/dc/elements/1.1/"
   xmlns:cc="http://creativecommons.org/ns#"
   xmlns:rdf="http://www.w3.org/1999/02/22-rdf-syntax-ns#"
   xmlns:svg="http://www.w3.org/2000/svg"
   xmlns="http://www.w3.org/2000/svg"
   xmlns:sodipodi="http://sodipodi.sourceforge.net/DTD/sodipodi-0.dtd"
   xmlns:inkscape="http://www.inkscape.org/namespaces/inkscape"
   viewBox="0 0 22 22"
   id="svg"
   version="1.1"
   width="100%"
   height="100%"
   sodipodi:docname="user.svg"
   inkscape:version="0.92.4 (5da689c313, 2019-01-14)">
  <sodipodi:namedview
     pagecolor="#ffffff"
     bordercolor="#666666"
     borderopacity="1"
     objecttolerance="10"
     gridtolerance="10"
     guidetolerance="10"
     inkscape:pageopacity="0"
     inkscape:pageshadow="2"
     inkscape:window-width="1280"
     inkscape:window-height="977"
     id="namedview27"
     showgrid="false"
     inkscape:zoom="1.8963318"
     inkscape:cx="125.88508"
     inkscape:cy="-67.87175"
     inkscape:window-x="0"
     inkscape:window-y="0"
     inkscape:window-maximized="1"
     inkscape:current-layer="svg" />
  <defs
     id="defs81">
    <style
       id="current-color-scheme"
       type="text/css">
      .ColorScheme-Text {
        color:#7B7C7E;
      }
      .ColorScheme-Background{
        color:#EFF0F1;
      }
      .ColorScheme-Highlight{
        color:#3DAEE6;
      }
      .ColorScheme-ViewText {
        color:#7B7C7E;
      }
      .ColorScheme-ViewBackground{
        color:#FCFCFC;
      }
      .ColorScheme-ViewHover {
        color:#3DAEE6;
      }
      .ColorScheme-ViewFocus{
        color:#1E92FF;
      }
      .ColorScheme-ButtonText {
        color:#7B7C7E;
      }
      .ColorScheme-ButtonBackground{
        color:#EFF0F1;
      }
      .ColorScheme-ButtonHover {
        color:#3DAEE6;
      }
      .ColorScheme-ButtonFocus{
        color:#1E92FF;
      }
</style>
  </defs>
  <metadata
     id="metadata34">
    <rdf:RDF>
      <cc:Work
         rdf:about="">
        <dc:format>image/svg+xml</dc:format>
        <dc:type
           rdf:resource="http://purl.org/dc/dcmitype/StillImage" />
        <dc:title />
      </cc:Work>
    </rdf:RDF>
  </metadata>
  <g
     id="user-busy"
     transform="translate(199,-1)">
    <rect
       style="fill:#ffffff;fill-opacity:0;stroke:none"
       id="rect3924"
       width="22"
       height="22"
       x="1"
       y="1" />
    <path
       style="fill:#2e3440;fill-opacity:1"
       d="m 12,4 c -1.662,0 -3,1.338 -3,3 0,1.662 1.338,3 3,3 1.662,0 3,-1.338 3,-3 0,-1.662 -1.338,-3 -3,-3 z m 0,1 c 1.108,0 2,0.892 2,2 0,1.108 -0.892,2 -2,2 -1.108,0 -2,-0.892 -2,-2 0,-1.108 0.892,-2 2,-2 z m 0,7 c -2.77,0 -5,0.891984 -5,2 l 0,5 0,1 1.2011733,0 7.5976537,0 L 17,20 l 0,-1 0,-5 c 0,-1.108016 -2.23,-2 -5,-2 z m 0,1 c 2.216,0 4,0.636298 4,1.427734 L 16,19 8,19 8,14.427734 C 8,13.636298 9.784,13 12,13 z"
       id="rect4109-0-9"
       class="ColorScheme-Text" />
  </g>
  <g
     transform="translate(159,-1)"
     id="user-away-extended">
    <rect
       y="1"
       x="1"
       height="22"
       width="22"
       id="rect3907"
       style="fill:#ffffff;fill-opacity:0;stroke:none" />
    <path
       style="fill:#2e3440;fill-opacity:1;stroke:none"
       d="m 12,4 c -1.66199,0 -3,1.338 -3,3 0,1.662 1.33801,3 3,3 1.662,0 3,-1.338 3,-3 0,-1.662 -1.338,-3 -3,-3 z m 0,8 c -2.76999,0 -5,0.89198 -5,2 l 0,5 0,1 1.1875,0 7.625,0 1.1875,0 0,-1 0,-5 c 0,-1.10802 -2.23,-2 -5,-2 z m 0,1 c 2.216,0 4,0.64607 4,1.4375 L 16,19 8,19 8,14.4375 C 8,13.64607 9.784,13 12,13 z m -2.34375,2.34375 0,1.3125 4.6875,0 0,-1.3125 -4.6875,0 z"
       id="path7744-2" />
  </g>
  <g
     id="user-away"
     transform="translate(119,-1)">
    <rect
       style="fill:#ffffff;fill-opacity:0;stroke:none"
       id="rect3873"
       width="22"
       height="22"
       x="1"
       y="1" />
    <path
       style="fill:#2e3440;fill-opacity:1;stroke:none"
       d="m 12,4 c -1.662,0 -3,1.338 -3,3 0,1.662 1.338,3 3,3 1.662,0 3,-1.338 3,-3 0,-1.662 -1.338,-3 -3,-3 z m 0,8 c -2.77,0 -5,0.89198 -5,2 l 0,5 0,1 1.2011733,0 7.5976597,0 L 17,20 l 0,-1 0,-5 c 0,-1.10802 -2.23,-2 -5,-2 z m 0,1 c 2.216,0 4,0.6363 4,1.42773 L 16,19 8,19 8,14.42773 C 8,13.6363 9.784,13 12,13 z"
       id="rect4109-4-9" />
  </g>
  <g
     id="user-offline"
     transform="translate(79,-1)">
    <rect
       style="fill:#ffffff;fill-opacity:0;stroke:none"
       id="rect3009"
       width="22"
       height="22"
       x="1"
       y="1" />
    <path
       style="fill:#2e3440;fill-opacity:1;stroke:none;opacity:0.5"
       d="m 12,4 c -1.662,0 -3,1.338 -3,3 0,1.662 1.338,3 3,3 1.662,0 3,-1.338 3,-3 0,-1.662 -1.338,-3 -3,-3 z m 0,8 c -2.77,0 -5,0.89198 -5,2 l 0,5 0,1 1.20117,0 7.59766,0 1.20117,0 0,-1 0,-5 c 0,-1.10802 -2.23,-2 -5,-2 z m 0,1 c 2.216,0 4,0.6363 4,1.42773 L 16,19 8,19 8,14.42773 C 8,13.6363 9.784,13 12,13 z"
       id="rect4109-00-0" />
  </g>
  <g
     id="user-invisible"
     transform="translate(-1,-1)">
    <rect
       style="fill:#ffffff;fill-opacity:0;stroke:none"
       id="rect3855"
       width="22"
       height="22"
       x="41"
       y="1" />
    <path
       style="fill:#2e3440;fill-opacity:1;stroke:none;opacity:0.6"
       d="m 52,4 c -1.662,0 -3,1.338 -3,3 0,1.662 1.338,3 3,3 1.662,0 3,-1.338 3,-3 0,-1.662 -1.338,-3 -3,-3 z m 0,8 c -2.77,0 -5,0.89198 -5,2 l 0,5 0,1 1.20117,0 7.59766,0 1.20117,0 0,-1 0,-5 c 0,-1.10802 -2.23,-2 -5,-2 z m 0,1 c 2.216,0 4,0.6363 4,1.42773 L 56,19 48,19 48,14.42773 C 48,13.6363 49.784,13 52,13 z"
       id="rect4109-9-3" />
  </g>
  <g
     id="user-online"
     transform="translate(-1,39)">
    <rect
       style="fill:#ffffff;fill-opacity:0;stroke:none"
       id="rect3956"
       width="22"
       height="22"
       x="1"
       y="-39" />
    <path
       style="fill:#2e3440;fill-opacity:1"
       d="m 12,-36 c -1.662,0 -3,1.338 -3,3 0,1.662 1.338,3 3,3 1.662,0 3,-1.338 3,-3 0,-1.662 -1.338,-3 -3,-3 z m 0,8 c -2.77,0 -5,0.891984 -5,2 l 0,5 0,1 1.2011719,0 7.5976561,0 1.201172,0 0,-1 0,-5 c 0,-1.108016 -2.23,-2 -5,-2 z m 0,1 c 2.216,0 4,0.636298 4,1.427734 L 16,-21 8,-21 8,-25.572266 C 8,-26.363702 9.784,-27 12,-27 z"
       id="rect4109-6-8"
       class="ColorScheme-Text" />
  </g>
  <g
     transform="translate(-486.72644,-502.11926)"
     id="user-identity">
    <rect
       style="opacity:0.01000001;fill:#fdbc4b;fill-opacity:0.00392157;stroke:none"
       id="rect7769"
       width="22"
       height="21.999998"
       x="721.72644"
       y="502.11926" />
    <path
       id="rect4109-5"
       d="m 732.72644,505.11926 c -2.04554,0 -3.69232,1.64677 -3.69232,3.69232 0,2.04554 1.64678,3.69231 3.69232,3.69231 2.04553,0 3.69231,-1.64677 3.69231,-3.69231 0,-2.04555 -1.64678,-3.69232 -3.69231,-3.69232 z m 0,8.61539 c -3.40927,0 -6.15386,2.74461 -6.15386,6.15386 l 0,1.23077 12.30771,0 0,-1.23077 c 0,-3.40925 -2.74459,-6.15386 -6.15385,-6.15386 z m 0,1.23077 c 2.72742,0 4.92308,2.19568 4.92308,4.92309 l -9.84617,0 c 0,-2.72741 2.19567,-4.92309 4.92309,-4.92309 z"
       style="fill:#2e3440;fill-opacity:1"
       class="ColorScheme-Text" />
  </g>
</svg>
