<?xml version="1.0" encoding="UTF-8" standalone="no"?>
<svg
   xmlns:dc="http://purl.org/dc/elements/1.1/"
   xmlns:cc="http://creativecommons.org/ns#"
   xmlns:rdf="http://www.w3.org/1999/02/22-rdf-syntax-ns#"
   xmlns:svg="http://www.w3.org/2000/svg"
   xmlns="http://www.w3.org/2000/svg"
   xmlns:sodipodi="http://sodipodi.sourceforge.net/DTD/sodipodi-0.dtd"
   xmlns:inkscape="http://www.inkscape.org/namespaces/inkscape"
   inkscape:version="1.0 (4035a4fb49, 2020-05-01)"
   sodipodi:docname="wallet.svg"
   height="100%"
   width="100%"
   version="1.1"
   id="svg"
   viewBox="0 0 22 22">
  <sodipodi:namedview
     inkscape:document-rotation="0"
     inkscape:current-layer="svg"
     inkscape:window-maximized="1"
     inkscape:window-y="0"
     inkscape:window-x="0"
     inkscape:cy="17.53718"
     inkscape:cx="-7.0476055"
     inkscape:zoom="5.3636364"
     showgrid="false"
     id="namedview12"
     inkscape:window-height="1022"
     inkscape:window-width="1920"
     inkscape:pageshadow="2"
     inkscape:pageopacity="0"
     guidetolerance="10"
     gridtolerance="10"
     objecttolerance="10"
     borderopacity="1"
     bordercolor="#666666"
     pagecolor="#ffffff" />
  <defs
     id="defs81">
    <style
       type="text/css"
       id="current-color-scheme">
      .ColorScheme-Text {
        color:#7B7C7E;
      }
      .ColorScheme-Background{
        color:#EFF0F1;
      }
      .ColorScheme-Highlight{
        color:#3DAEE6;
      }
      .ColorScheme-ViewText {
        color:#7B7C7E;
      }
      .ColorScheme-ViewBackground{
        color:#FCFCFC;
      }
      .ColorScheme-ViewHover {
        color:#3DAEE6;
      }
      .ColorScheme-ViewFocus{
        color:#1E92FF;
      }
      .ColorScheme-ButtonText {
        color:#7B7C7E;
      }
      .ColorScheme-ButtonBackground{
        color:#EFF0F1;
      }
      .ColorScheme-ButtonHover {
        color:#3DAEE6;
      }
      .ColorScheme-ButtonFocus{
        color:#1E92FF;
      }
</style>
  </defs>
  <metadata
     id="metadata34">
    <rdf:RDF>
      <cc:Work
         rdf:about="">
        <dc:format>image/svg+xml</dc:format>
        <dc:type
           rdf:resource="http://purl.org/dc/dcmitype/StillImage" />
        <dc:title />
      </cc:Work>
    </rdf:RDF>
  </metadata>
  <g
     transform="translate(27,-1)"
     id="wallet-closed">
    <rect
       y="1"
       x="1"
       height="22"
       width="22"
       id="rect3009"
       style="fill:#ffffff;fill-opacity:0;stroke:none" />
    <path
       class="ColorScheme-Text"
       id="rect7143-9"
       transform="translate(-40,0)"
       d="m 43,7 0,13 18,0 0,-13 -3,0 -1,0 -11,0 z m 1,1 6,0 10,0.03125 0,3.96875 -8,-0.03125 0,4 8,0.03125 0,3 -16,0 z m 1,1 0,2 14,0 0,-2 z m 9,3.96875 c 0.55228,0 1,0.4477 1,1 0,0.5523 -0.44772,1 -1,1 -0.55228,0 -1,-0.4477 -1,-1 0,-0.5523 0.44772,-1 1,-1 z"
       style="fill:#0b0c0d;fill-opacity:1;stroke:none" />
  </g>
  <g
     transform="translate(-1,-1)"
     id="wallet-open">
    <rect
       style="fill:#ffffff;fill-opacity:0;stroke:none"
       id="rect3014"
       width="22"
       height="22"
       x="1"
       y="1" />
    <path
       class="ColorScheme-Text"
       id="rect7143"
       d="M 6,4 6,7 3,7 3,20 21,20 21,7 18,7 18,6 16,6 16,4 z m 1,1 8,0 0,1 -7,0 0,4 -1,0 z m 11,3 2,0 0,4 -8,0 0,4 8,0 0,3 -16,0 0,-11 2,0 0,1 -1,0 0,2 1,0 2,0 9,0 1,0 1,0 0,-2 -1,0 z m -4,5 c 0.55228,0 1,0.4477 1,1 0,0.5523 -0.44772,1 -1,1 -0.55228,0 -1,-0.4477 -1,-1 0,-0.5523 0.44772,-1 1,-1 z"
       style="fill:#0b0c0d;fill-opacity:1;stroke:none" />
  </g>
</svg>
