<?xml version="1.0" encoding="UTF-8" standalone="no"?>
<svg
   xmlns:osb="http://www.openswatchbook.org/uri/2009/osb"
   xmlns:dc="http://purl.org/dc/elements/1.1/"
   xmlns:cc="http://creativecommons.org/ns#"
   xmlns:rdf="http://www.w3.org/1999/02/22-rdf-syntax-ns#"
   xmlns:svg="http://www.w3.org/2000/svg"
   xmlns="http://www.w3.org/2000/svg"
   xmlns:sodipodi="http://sodipodi.sourceforge.net/DTD/sodipodi-0.dtd"
   xmlns:inkscape="http://www.inkscape.org/namespaces/inkscape"
   id="svg"
   width="32"
   height="32"
   version="1.1"
   viewBox="0 0 32 32"
   sodipodi:docname="window.svg"
   inkscape:version="1.0 (4035a4fb49, 2020-05-01)">
  <metadata
     id="metadata60">
    <rdf:RDF>
      <cc:Work
         rdf:about="">
        <dc:format>image/svg+xml</dc:format>
        <dc:type
           rdf:resource="http://purl.org/dc/dcmitype/StillImage" />
      </cc:Work>
    </rdf:RDF>
  </metadata>
  <sodipodi:namedview
     showguides="false"
     pagecolor="#ffffff"
     bordercolor="#666666"
     borderopacity="1"
     objecttolerance="10"
     gridtolerance="10"
     guidetolerance="10"
     inkscape:pageopacity="0"
     inkscape:pageshadow="2"
     inkscape:window-width="1920"
     inkscape:window-height="1024"
     id="namedview58"
     showgrid="false"
     inkscape:zoom="5.2149125"
     inkscape:cx="60.250146"
     inkscape:cy="25.821904"
     inkscape:window-x="0"
     inkscape:window-y="0"
     inkscape:window-maximized="1"
     inkscape:current-layer="svg"
     inkscape:document-rotation="0">
    <inkscape:grid
       id="grid855"
       type="xygrid" />
  </sodipodi:namedview>
  <defs
     id="defs4">
    <linearGradient
       id="linearGradient5606"
       osb:paint="solid">
      <stop
         id="stop5608"
         offset="0"
         style="stop-color:#000000" />
    </linearGradient>
  </defs>
  <g
     id="window-pin"
     transform="translate(123.32203,-21.491525)">
    <rect
       style="fill:#d3dae3;fill-opacity:0"
       width="8"
       height="8"
       x="-46"
       y="44"
       id="rect6" />
    <path
       style="opacity:1;fill:#004d38;fill-opacity:1;stroke-width:0.625"
       d="m -41.175065,45.499525 c -0.243278,0.243275 -0.292721,0.677722 -0.0097,1.15234 l -1.328132,0.888683 c -0.165121,-0.06667 -0.342365,-0.116309 -0.517573,-0.117198 -0.227735,-0.0017 -0.449219,0.06832 -0.644534,0.263675 l 0.9375,0.9375 -1.25,1.25 -0.312526,0.625 0.625,-0.3125 1.25,-1.25 0.9375,0.9375 c 0.345925,-0.345925 0.301476,-0.783675 0.146477,-1.162115 l 0.888683,-1.328112 c 0.474618,0.282952 0.909065,0.233502 1.15234,-0.0098 z"
       id="path8"
       inkscape:connector-curvature="0" />
  </g>
  <g
     id="window-unpin"
     transform="translate(135.32203,-21.491525)">
    <path
       style="opacity:1;fill:#2b5580;fill-opacity:1;stroke-width:0.625"
       d="m -61.175065,45.499525 c -0.243278,0.243275 -0.292721,0.677722 -0.0097,1.15234 l -1.328132,0.888683 c -0.165121,-0.06667 -0.342365,-0.116309 -0.517573,-0.117198 -0.227735,-0.0017 -0.449221,0.06832 -0.644534,0.263675 l 0.9375,0.9375 -1.25,1.25 -0.312526,0.625 0.625,-0.3125 1.25,-1.25 0.9375,0.9375 c 0.345925,-0.345925 0.301476,-0.783675 0.146477,-1.162115 l 0.888683,-1.328112 c 0.474618,0.282952 0.909065,0.233502 1.15234,-0.0098 z"
       id="path11"
       inkscape:connector-curvature="0" />
    <rect
       style="fill:#d3dae3;fill-opacity:0"
       width="8"
       height="8"
       x="-66"
       y="44"
       id="rect13" />
  </g>
  <rect
     style="fill:#d3dae3;fill-opacity:0"
     width="22"
     height="22"
     x="-38.33"
     y="13.77"
     id="rect16" />
  <g
     id="22-22-window-close"
     transform="translate(32,10)">
    <rect
       style="opacity:0.00100002"
       width="22"
       height="22"
       x="0"
       y="0"
       id="rect18" />
    <g
       style="fill:#ffffff"
       transform="matrix(1.7493122,0,0,1.7499488,-107.95048,-909.47286)"
       id="g24">
      <g
         style="fill:#ffffff"
         transform="translate(19,-242)"
         id="g22">
        <path
           style="fill:#001a12;fill-opacity:1"
           d="m 45.571203,764.57141 h 0.857142 c 0.0089,-1.1e-4 0.01782,-4e-4 0.02679,0 0.21853,0.01 0.437032,0.11021 0.589286,0.26785 l 1.955357,1.95536 1.982143,-1.95536 c 0.227678,-0.19757 0.382861,-0.26185 0.589285,-0.26785 h 0.857143 v 0.85714 c 0,0.24555 -0.02943,0.47199 -0.214285,0.64286 l -1.955357,1.95535 1.928571,1.92858 c 0.161304,0.16128 0.241064,0.38867 0.241071,0.61607 v 0.85714 h -0.857143 c -0.2274,-10e-6 -0.454788,-0.0798 -0.616071,-0.24107 l -1.955357,-1.95536 -1.955357,1.95536 c -0.161288,0.1613 -0.388684,0.24107 -0.616076,0.24107 h -0.857142 v -0.85714 c -3e-6,-0.22739 0.07977,-0.45479 0.241071,-0.61607 l 1.955357,-1.92858 -1.955357,-1.95535 c -0.180636,-0.16683 -0.259851,-0.40222 -0.241071,-0.64286 z"
           id="path20" />
      </g>
    </g>
  </g>
  <g
     id="16-16-window-close"
     transform="translate(54,32)">
    <rect
       style="opacity:0.00100002"
       width="16"
       height="16"
       x="0"
       y="-16"
       id="rect27" />
    <g
       style="fill:#ffffff"
       transform="matrix(1.2495087,0,0,1.2499635,-76.964626,-665.48065)"
       id="g33">
      <g
         style="fill:#ffffff"
         transform="translate(19,-242)"
         id="g31">
        <path
           style="fill:#001a12;fill-opacity:1"
           d="m 45.799685,764.79997 h 0.8 c 0.0083,-10e-5 0.01663,-3.7e-4 0.025,0 0.203961,0.009 0.407896,0.10286 0.55,0.25 l 1.825,1.825 1.85,-1.825 c 0.2125,-0.1844 0.357337,-0.2444 0.55,-0.25 h 0.8 v 0.8 c 0,0.22918 -0.02747,0.44052 -0.2,0.6 l -1.825,1.825 1.8,1.8 c 0.15055,0.15054 0.224993,0.36276 0.225,0.575 v 0.8 h -0.8 c -0.212241,-10e-6 -0.424469,-0.0745 -0.575,-0.225 l -1.825,-1.825 -1.825,1.825 c -0.150531,0.15055 -0.362768,0.225 -0.575,0.225 h -0.8 v -0.8 c -3e-6,-0.21223 0.07445,-0.42446 0.225,-0.575 l 1.825,-1.8 -1.825,-1.825 c -0.168594,-0.1557 -0.242528,-0.3754 -0.225,-0.6 z"
           id="path29" />
      </g>
    </g>
  </g>
  <g
     id="window-close">
    <rect
       width="32"
       height="32"
       x="0"
       y="0"
       style="opacity:0.00100002"
       id="rect36" />
    <g
       style="opacity:0.2"
       transform="matrix(1.7493122,0,0,1.7499488,-102.95048,-903.47286)"
       id="g46">
      <g
         transform="translate(19,-242)"
         id="g44" />
    </g>
    <g
       transform="matrix(1.7493122,0,0,1.7499488,-102.95048,-904.47286)"
       style="fill:#ffffff"
       id="g52">
      <g
         transform="translate(19,-242)"
         style="fill:#ffffff"
         id="g50">
        <path
           d="m 45.571203,764.57141 h 0.857142 c 0.0089,-1.1e-4 0.01782,-4e-4 0.02679,0 0.21853,0.01 0.437032,0.11021 0.589286,0.26785 l 1.955357,1.95536 1.982143,-1.95536 c 0.227678,-0.19757 0.382861,-0.26185 0.589285,-0.26785 h 0.857143 v 0.85714 c 0,0.24555 -0.02943,0.47199 -0.214285,0.64286 l -1.955357,1.95535 1.928571,1.92858 c 0.161304,0.16128 0.241064,0.38867 0.241071,0.61607 v 0.85714 h -0.857143 c -0.2274,-10e-6 -0.454788,-0.0798 -0.616071,-0.24107 l -1.955357,-1.95536 -1.955357,1.95536 c -0.161288,0.1613 -0.388684,0.24107 -0.616076,0.24107 h -0.857142 v -0.85714 c -3e-6,-0.22739 0.07977,-0.45479 0.241071,-0.61607 l 1.955357,-1.92858 -1.955357,-1.95535 c -0.180636,-0.16683 -0.259851,-0.40222 -0.241071,-0.64286 z"
           style="fill:#001a12;fill-opacity:1"
           id="path48" />
      </g>
    </g>
  </g>
</svg>
